<?xml version="1.0" encoding="utf-8"?>
<!-- Generator: Adobe Illustrator 18.1.1, SVG Export Plug-In . SVG Version: 6.00 Build 0)  -->
<svg version="1.1" id="Layer_1" xmlns="http://www.w3.org/2000/svg" xmlns:xlink="http://www.w3.org/1999/xlink" x="0px" y="0px"
	 viewBox="0 0 512 512" enable-background="new 0 0 512 512" xml:space="preserve">
<g>
</g>
<path fill="#93278F" stroke="#000000" stroke-miterlimit="10" d="M302.5,159.9c-78.4,0-141.9,63.5-141.9,141.9
	s63.5,141.9,141.9,141.9s141.9-63.5,141.9-141.9S380.9,159.9,302.5,159.9z M302.5,408.2c-58.8,0-106.4-47.6-106.4-106.4
	s47.6-106.4,106.4-106.4S408.9,243,408.9,301.8S361.3,408.2,302.5,408.2z"/>
<g>
</g>
<g>
</g>
<g>
	<path fill="#FF0000" stroke="#000000" stroke-miterlimit="10" d="M316.9,209.8c0,58.8-47.6,106.4-106.4,106.4
		c-4.6,0-9.1-0.3-13.6-0.9c1.6,13,5.6,25.2,11.5,36.3c0.7,0,1.4,0,2,0c78.4,0,141.9-63.5,141.9-141.9c0-0.7,0-1.4,0-2
		c-11.1-5.9-23.3-9.9-36.3-11.5C316.6,200.7,316.9,205.2,316.9,209.8z"/>
	<path fill="#0000FF" stroke="#000000" stroke-miterlimit="10" d="M104.1,209.8c0-58.8,47.6-106.4,106.4-106.4
		c40.8,0,76.2,22.9,94,56.6c14.3,0.2,28.1,2.5,41.1,6.7c-18.3-57.3-71.8-98.7-135.2-98.7c-78.4,0-141.9,63.5-141.9,141.9
		c0,63.4,41.4,116.9,98.7,135.2c-4.1-13-6.5-26.8-6.7-41.1C127,286,104.1,250.6,104.1,209.8z"/>
	<path fill="#0000FF" stroke="#000000" stroke-miterlimit="10" d="M302.5,195.4c4.6,0,9.1,0.3,13.6,0.9c-1.6-13-5.6-25.2-11.5-36.3
		c-0.7,0-1.4,0-2,0c-78.4,0-141.9,63.5-141.9,141.9c0,0.7,0,1.4,0,2c11.1,5.9,23.3,9.9,36.3,11.5c-0.6-4.4-0.9-9-0.9-13.6
		C196.1,243,243.7,195.4,302.5,195.4z"/>
	<path fill="#FF0000" stroke="#000000" stroke-miterlimit="10" d="M345.7,166.6c4.1,13,6.5,26.8,6.7,41.1
		c33.7,17.9,56.6,53.3,56.6,94c0,58.8-47.6,106.4-106.4,106.4c-40.8,0-76.2-22.9-94-56.6c-14.3-0.2-28.1-2.5-41.1-6.7
		c18.3,57.3,71.8,98.7,135.2,98.7c78.4,0,141.9-63.5,141.9-141.9C444.4,238.5,402.9,184.9,345.7,166.6z"/>
</g>
</svg>
