<?xml version="1.0" encoding="utf-8"?>
<!-- Generator: Adobe Illustrator 18.1.1, SVG Export Plug-In . SVG Version: 6.00 Build 0)  -->
<svg version="1.1" id="Layer_1" xmlns="http://www.w3.org/2000/svg" xmlns:xlink="http://www.w3.org/1999/xlink" x="0px" y="0px"
	 viewBox="0 0 512 512" enable-background="new 0 0 512 512" xml:space="preserve">
<image display="none" overflow="visible" enable-background="new    " width="2404" height="2404" xlink:href="B670F2B7.jpeg"  transform="matrix(0.2129 0 0 0.2129 0 0)">
</image>
<path fill="#FF8A6A" d="M451.2,170.3L413.5,208c-3.9,3.9-10.3,3.9-14.1,0l-73-73c-3.9-3.9-3.9-10.3,0-14.1l37.7-37.7
	c3.9-3.9,10.3-3.9,14.1,0l73,73C455.1,160.1,455.1,166.4,451.2,170.3z"/>
<g>
	
		<rect x="88.7" y="219.5" transform="matrix(-0.7071 0.7071 -0.7071 -0.7071 576.1462 246.6422)" fill="#FBB03B" width="296.6" height="46.2"/>
	
		<rect x="119.3" y="252.8" transform="matrix(-0.7071 0.7071 -0.7071 -0.7071 649.9352 277.1394)" fill="#F2A43D" width="296.6" height="40.7"/>
	
		<rect x="146.7" y="282" transform="matrix(-0.7071 0.7071 -0.7071 -0.7071 716.1693 304.5251)" fill="#DB923B" width="296.6" height="37.2"/>
</g>
<g>
	<g>
		<path fill="#FCFAD2" d="M116.1,330.7c16.4,3.8,26.7,20.1,22.9,36.6c-3.8,16.4-20.1,26.7-36.6,22.9"/>
		<circle fill="#FCFAD2" cx="144.8" cy="386.8" r="30.5"/>
		<path fill="#FCFAD2" d="M143.1,431.3c-3.8-16.4,6.5-32.8,22.9-36.6c16.4-3.8,32.8,6.5,36.6,22.9"/>
	</g>
</g>
<polygon fill="#FCFAD2" points="203.1,418.4 89.2,444.7 115.4,330.7 "/>
<g>
	<g>
		<defs>
			<polygon id="SVGID_1_" points="203.1,418.4 89.2,444.7 115.4,330.7 			"/>
		</defs>
		<clipPath id="SVGID_2_">
			<use xlink:href="#SVGID_1_"  overflow="visible"/>
		</clipPath>
		<circle clip-path="url(#SVGID_2_)" fill="#333333" cx="89.8" cy="444.3" r="40.4"/>
	</g>
</g>
<g>
	
		<rect x="292.5" y="158.3" transform="matrix(-0.7071 -0.7071 0.7071 -0.7071 478.7582 556.6343)" fill="#B3B3B3" width="124.4" height="41.8"/>
</g>
</svg>
