<?xml version="1.0" encoding="utf-8"?>
<!-- Generator: Adobe Illustrator 18.1.1, SVG Export Plug-In . SVG Version: 6.00 Build 0)  -->
<svg version="1.1" id="Layer_1" xmlns="http://www.w3.org/2000/svg" xmlns:xlink="http://www.w3.org/1999/xlink" x="0px" y="0px"
	 viewBox="0 0 512 512" enable-background="new 0 0 512 512" xml:space="preserve">
<path fill="#FFFFFF" stroke="#000000" stroke-width="5" stroke-miterlimit="10" d="M146.7,224.7c-7.2-24.7-14.1-44.3-18-65
	c-0.6-3.3-1.9-10.4-2.3-19.7c-0.4-9.1-0.8-15.3,0.7-21.3c4.7-20.2,26.5-30.4,28.7-31.3c13.7-6.2,26.4-4.8,39-3.3
	c8.1,0.9,17.3,3.4,35.7,8.3c18.7,5,18.7,5.8,24,6c7.9,0.2,11.1-1.5,34.7-8c12.7-3.5,19-5.2,23.3-6c21.2-3.7,32.5-1,38,0.7
	c7,2.2,10.5,4.8,11.7,5.7c4.2,3.2,7.4,7.5,11.7,17c3.4,7.7,7.3,16.3,9.3,29c0.8,4.8,2.9,19.8-1,39c-1.9,9.4-3,8.8-10.7,32
	c-3.5,10.5-7.1,21.5-10.7,35.7c-3.2,12.8-5.7,22.5-7,36c-0.7,7.5-0.8,14-1,27c-0.2,18.2,0.5,18.5,0,29.7c-0.5,12.2-0.9,21.4-4,33.3
	c-2.6,10.1-5.9,17.1-10.3,26.7c-0.8,1.8-5.1,10.9-12.7,21.3c-3.7,5.2-7.5,9.6-13.7,11.3c-1.5,0.4-3.4,1-5.7,0.7
	c-6.3-1-9.8-8.1-11.3-11.3c-4.9-10.3-4-20.5-3.7-24c0.2-2.7-1.1-19.3-3.7-52.7c-0.1-1.8-0.1-1.3-6.7-44.7c-0.1-0.7-1.3-8.5-6-17
	c-4.1-7.4-7.5-9.5-9.3-10.3c-4.1-2-8-1.8-9.7-1.7c-6.2,0.4-10.4,3.5-12,4.7c-4.8,3.6-7.4,8.2-9.7,13.7c-5.5,13.2-6.7,25.1-7,28.7
	c-2.3,25.1-3,41.3-3,41.3c-0.7,14.8-3.1,29.5-3.3,44.3c0,0-0.1,8.8-5.7,21.7c-0.8,1.9-2.1,4.6-5,6.3c-4.3,2.5-9.3,1-10.3,0.7
	c-3.5-1.1-6.3-3.3-11.7-10.7c-6.1-8.3-9.7-15.4-10-16c-3.5-6.9-7.6-15-11.3-26.7c-1.6-5-5.8-18.9-7.3-37.7
	c-1.1-13.4,0.4-14.4-0.3-38c-0.2-6.6-0.5-16.4-1.3-25.3C157.5,269.6,156.1,257.4,146.7,224.7z"/>
</svg>
