<?xml version="1.0" encoding="utf-8"?>
<!-- Generator: Adobe Illustrator 18.1.1, SVG Export Plug-In . SVG Version: 6.00 Build 0)  -->
<svg version="1.1" id="Layer_1" xmlns="http://www.w3.org/2000/svg" xmlns:xlink="http://www.w3.org/1999/xlink" x="0px" y="0px"
	 viewBox="0 0 512 512" enable-background="new 0 0 512 512" xml:space="preserve">
<g>
	<line fill="none" stroke="#000000" stroke-miterlimit="10" x1="42.4" y1="254.8" x2="59.2" y2="208.6"/>
	<line fill="none" stroke="#000000" stroke-miterlimit="10" x1="59.2" y1="208.6" x2="75.9" y2="254.8"/>
	<line fill="none" stroke="#000000" stroke-miterlimit="10" x1="59.5" y1="209" x2="59.5" y2="185"/>
	<line fill="none" stroke="#000000" stroke-miterlimit="10" x1="84" y1="185.5" x2="33" y2="185.5"/>
	<circle fill="none" stroke="#000000" stroke-miterlimit="10" cx="59.3" cy="163.2" r="15.3"/>
	<line fill="none" stroke="#000000" stroke-miterlimit="10" x1="59.5" y1="184.8" x2="59.3" y2="178.7"/>
</g>
<g>
	<line fill="none" stroke="#000000" stroke-miterlimit="10" x1="438.4" y1="331.8" x2="455.2" y2="285.6"/>
	<line fill="none" stroke="#000000" stroke-miterlimit="10" x1="455.2" y1="285.6" x2="471.9" y2="331.8"/>
	<line fill="none" stroke="#000000" stroke-miterlimit="10" x1="455.5" y1="286" x2="455.5" y2="262"/>
	<line fill="none" stroke="#000000" stroke-miterlimit="10" x1="480" y1="262.5" x2="429" y2="262.5"/>
	<circle fill="none" stroke="#000000" stroke-miterlimit="10" cx="455.3" cy="240.2" r="15.3"/>
	<line fill="none" stroke="#000000" stroke-miterlimit="10" x1="455.5" y1="261.8" x2="455.3" y2="255.7"/>
</g>
<g>
	<ellipse fill="none" stroke="#000000" stroke-miterlimit="10" cx="256" cy="256" rx="39.8" ry="20.5"/>
	<text transform="matrix(1 0 0 1 239.2451 258.9351)" font-family="'MyriadPro-Regular'" font-size="10">PRIJAVA</text>
</g>
<g>
	<ellipse fill="none" stroke="#000000" stroke-miterlimit="10" cx="302" cy="201" rx="39.8" ry="20.5"/>
	<text transform="matrix(1 0 0 1 281.9956 197.1851)"><tspan x="0" y="0" font-family="'MyriadPro-Regular'" font-size="10">PREGLED  </tspan><tspan x="-11" y="12" font-family="'MyriadPro-Regular'" font-size="10">UPORABNIKOV</tspan></text>
</g>
<g>
	<ellipse fill="none" stroke="#000000" stroke-miterlimit="10" cx="256" cy="120" rx="39.8" ry="20.5"/>
	<text transform="matrix(1 0 0 1 235.9956 116.1851)"><tspan x="0" y="0" font-family="'MyriadPro-Regular'" font-size="10">PREGLED  </tspan><tspan x="4.7" y="12" font-family="'MyriadPro-Regular'" font-size="10">SKUPIN</tspan></text>
</g>
<g>
	<ellipse fill="none" stroke="#000000" stroke-miterlimit="10" cx="256" cy="56" rx="39.8" ry="20.5"/>
	<text transform="matrix(1 0 0 1 237.0557 55.1851)"><tspan x="0" y="0" font-family="'MyriadPro-Regular'" font-size="10">PREGLED </tspan><tspan x="-6.5" y="12" font-family="'MyriadPro-Regular'" font-size="10">DOGODKOV</tspan></text>
</g>
<g>
	<ellipse fill="none" stroke="#000000" stroke-miterlimit="10" cx="302" cy="307" rx="39.8" ry="20.5"/>
	<text transform="matrix(1 0 0 1 269.3857 306.1851)"><tspan x="0" y="0" font-family="'MyriadPro-Regular'" font-size="8">NADZOR/BRISANJE  </tspan><tspan x="20.4" y="9.6" font-family="'MyriadPro-Regular'" font-size="8">SKUPIN</tspan></text>
</g>
<g>
	<ellipse fill="none" stroke="#000000" stroke-miterlimit="10" cx="336" cy="355" rx="39.8" ry="20.5"/>
	<text transform="matrix(1 0 0 1 303.3857 354.1851)"><tspan x="0" y="0" font-family="'MyriadPro-Regular'" font-size="8">NADZOR/BRISANJE  </tspan><tspan x="7.9" y="9.6" font-family="'MyriadPro-Regular'" font-size="8">UPORABNIKOV</tspan></text>
</g>
<g>
	<ellipse fill="none" stroke="#000000" stroke-miterlimit="10" cx="320" cy="419" rx="39.8" ry="20.5"/>
	<text transform="matrix(1 0 0 1 287.3857 418.1851)"><tspan x="0" y="0" font-family="'MyriadPro-Regular'" font-size="8">NADZOR/BRISANJE  </tspan><tspan x="12.3" y="9.6" font-family="'MyriadPro-Regular'" font-size="8">DOGODKOV</tspan></text>
</g>
<rect x="416.3" y="207.3" fill="none" width="75.3" height="10.7"/>
<text transform="matrix(1 0 0 1 425.6719 213.0137)" font-family="'MyriadPro-Regular'" font-size="8">ADMINISTRATOR</text>
<rect x="12.3" y="130.3" fill="none" width="94" height="10.7"/>
<text transform="matrix(1 0 0 1 16.5149 136.0137)" font-family="'MyriadPro-Regular'" font-size="8">REGISTRIRAN UPORABNIK</text>
<g>
	<line fill="none" stroke="#000000" stroke-miterlimit="10" x1="43.4" y1="488.8" x2="60.2" y2="442.6"/>
	<line fill="none" stroke="#000000" stroke-miterlimit="10" x1="60.2" y1="442.6" x2="76.9" y2="488.8"/>
	<line fill="none" stroke="#000000" stroke-miterlimit="10" x1="60.5" y1="443" x2="60.5" y2="419"/>
	<line fill="none" stroke="#000000" stroke-miterlimit="10" x1="85" y1="419.5" x2="34" y2="419.5"/>
	<circle fill="none" stroke="#000000" stroke-miterlimit="10" cx="60.3" cy="397.2" r="15.3"/>
	<line fill="none" stroke="#000000" stroke-miterlimit="10" x1="60.5" y1="418.8" x2="60.3" y2="412.7"/>
</g>
<rect x="10.3" y="364.3" fill="none" width="100.5" height="10.7"/>
<text transform="matrix(1 0 0 1 13.0973 370.0127)" font-family="'MyriadPro-Regular'" font-size="8">NEREGISTRIRAN UPORABNIK</text>
<g>
	<ellipse fill="none" stroke="#000000" stroke-miterlimit="10" cx="176" cy="378" rx="39.8" ry="20.5"/>
	<text transform="matrix(1 0 0 1 147.2451 380.9351)" font-family="'MyriadPro-Regular'" font-size="10">REGISTRACIJA</text>
</g>
<line fill="none" stroke="#000000" stroke-miterlimit="10" x1="419" y1="265" x2="295.8" y2="256"/>
<line fill="none" stroke="#000000" stroke-miterlimit="10" x1="339.8" y1="207.3" x2="412" y2="256"/>
<line fill="none" stroke="#000000" stroke-miterlimit="10" x1="296" y1="126.2" x2="416.3" y2="231.7"/>
<line fill="none" stroke="#000000" stroke-miterlimit="10" x1="290.4" y1="66.3" x2="436" y2="197.2"/>
<line fill="none" stroke="#000000" stroke-miterlimit="10" x1="341.8" y1="307" x2="419" y2="279"/>
<line fill="none" stroke="#000000" stroke-miterlimit="10" x1="375.9" y1="350.5" x2="426.2" y2="308.7"/>
<line fill="none" stroke="#000000" stroke-miterlimit="10" x1="96.5" y1="185.5" x2="216.3" y2="256"/>
<line fill="none" stroke="#000000" stroke-miterlimit="10" x1="164.9" y1="398.6" x2="93" y2="440.5"/>
<line fill="none" stroke="#000000" stroke-miterlimit="10" x1="100.7" y1="155" x2="216.3" y2="59.7"/>
<line fill="none" stroke="#000000" stroke-miterlimit="10" x1="216.3" y1="126.2" x2="100.7" y2="168.3"/>
<line fill="none" stroke="#000000" stroke-miterlimit="10" x1="357.8" y1="412.7" x2="432.3" y2="341.7"/>
<line fill="none" stroke="#000000" stroke-miterlimit="10" x1="296" y1="402.7" x2="96.5" y2="212.7"/>
<g>
	<ellipse fill="none" stroke="#000000" stroke-miterlimit="10" cx="125" cy="43" rx="39.8" ry="20.5"/>
	<text transform="matrix(1 0 0 1 99.5903 42.1851)"><tspan x="0" y="0" font-family="'MyriadPro-Regular'" font-size="10">USTVARITEV </tspan><tspan x="7.6" y="12" font-family="'MyriadPro-Regular'" font-size="10">SKUPINE</tspan></text>
</g>
<line fill="none" stroke="#000000" stroke-miterlimit="10" x1="65" y1="120" x2="106.4" y2="61.1"/>
<g>
	<ellipse fill="none" stroke="#000000" stroke-miterlimit="10" cx="336" cy="477" rx="39.8" ry="20.5"/>
	<text transform="matrix(1 0 0 1 311.0532 476.1851)"><tspan x="0" y="0" font-family="'MyriadPro-Regular'" font-size="8">NOTIFICIRANJE </tspan><tspan x="2.7" y="9.6" font-family="'MyriadPro-Regular'" font-size="8">UPORABNIKA</tspan></text>
</g>
<line fill="none" stroke="#000000" stroke-miterlimit="10" x1="363.2" y1="462.1" x2="451" y2="354.2"/>
<g>
	<ellipse fill="none" stroke="#000000" stroke-miterlimit="10" cx="193" cy="185" rx="39.8" ry="20.5"/>
	<text transform="matrix(1 0 0 1 156.7896 186.1851)"><tspan x="0" y="0" font-family="'MyriadPro-Regular'" font-size="8">PRIDRUŽITEV/ IZPIS IZ </tspan><tspan x="22" y="9.6" font-family="'MyriadPro-Regular'" font-size="8">SKUPINE</tspan></text>
</g>
<line fill="none" x1="153.3" y1="180.5" x2="100.7" y2="178.5"/>
<line fill="none" stroke="#000000" stroke-miterlimit="10" x1="153.3" y1="180.5" x2="100.7" y2="178.5"/>
</svg>
