<?xml version="1.0" encoding="utf-8"?>
<!-- Generator: Adobe Illustrator 18.1.1, SVG Export Plug-In . SVG Version: 6.00 Build 0)  -->
<svg version="1.1" id="Layer_1" xmlns="http://www.w3.org/2000/svg" xmlns:xlink="http://www.w3.org/1999/xlink" x="0px" y="0px"
	 viewBox="0 0 960 700" enable-background="new 0 0 960 700" xml:space="preserve">
<g>
	<rect x="21.2" y="106.3" fill="#FFFFFF" stroke="#000000" stroke-miterlimit="10" width="115.3" height="36"/>
	<rect x="21.2" y="107" fill="none" width="115.3" height="35.3"/>
	<text transform="matrix(1 0 0 1 46.6087 126.0999)" font-family="'MyriadPro-Regular'" font-size="10">LANDING PAGE</text>
</g>
<g>
	<rect x="180.2" y="106.3" fill="#FFFFFF" stroke="#000000" stroke-miterlimit="10" width="115.3" height="36"/>
	<rect x="180.2" y="107" fill="none" width="115.3" height="35.3"/>
	<text transform="matrix(1 0 0 1 202.1883 126.0999)" font-family="'MyriadPro-Regular'" font-size="10">PRIJAVNA STRAN</text>
</g>
<polygon fill="#FFFFFF" stroke="#000000" stroke-miterlimit="10" points="394.5,76.6 334.4,124.7 394.5,172.7 454.6,124.7 "/>
<rect x="362" y="113.3" fill="none" width="64" height="26"/>
<text transform="matrix(1 0 0 1 374.3654 120.4334)"><tspan x="0" y="0" font-family="'MyriadPro-Regular'" font-size="10">USPEŠNA </tspan><tspan x="0.3" y="12" font-family="'MyriadPro-Regular'" font-size="10">PRIJAVA?</tspan></text>
<line fill="none" stroke="#000000" stroke-miterlimit="10" x1="136" y1="124.5" x2="180" y2="124.5"/>
<line fill="none" stroke="#000000" stroke-miterlimit="10" x1="295.5" y1="124.3" x2="334.4" y2="124.7"/>
<line fill="none" stroke="#000000" stroke-miterlimit="10" x1="394.5" y1="76.6" x2="394" y2="21.3"/>
<line fill="none" stroke="#000000" stroke-miterlimit="10" x1="394" y1="21.5" x2="238" y2="21.5"/>
<line fill="none" stroke="#000000" stroke-miterlimit="10" x1="237.5" y1="22" x2="237.5" y2="106"/>
<rect x="299.7" y="8.7" fill="none" width="47.3" height="18.8"/>
<text transform="matrix(1 0 0 1 317.5835 15.7666)" font-family="'MyriadPro-Regular'" font-size="10">NE</text>
<polygon points="243.2,97 237.7,106.7 232.1,97 "/>
<g>
	<rect x="496.5" y="106.3" fill="#FFFFFF" stroke="#000000" stroke-miterlimit="10" width="115.3" height="36"/>
	<rect x="496.5" y="107" fill="none" width="115.3" height="35.3"/>
	<text transform="matrix(1 0 0 1 516.1368 126.0999)" font-family="'MyriadPro-Regular'" font-size="10">SPLETNI KOLEDAR</text>
</g>
<line fill="none" stroke="#000000" stroke-miterlimit="10" x1="455" y1="125.5" x2="497" y2="125.5"/>
<rect x="451" y="114.9" fill="none" width="47.3" height="18.8"/>
<text transform="matrix(1 0 0 1 468.2767 122.0166)" font-family="'MyriadPro-Regular'" font-size="10">DA</text>
<polygon fill="#FFFFFF" stroke="#000000" stroke-miterlimit="10" points="699.9,74.5 639.8,122.6 699.9,170.7 760,122.6 "/>
<rect x="667.4" y="117.3" fill="none" width="64" height="26"/>
<text transform="matrix(1 0 0 1 681.8639 124.3502)" font-family="'MyriadPro-Regular'" font-size="10">ODJAVA</text>
<line fill="none" stroke="#000000" stroke-miterlimit="10" x1="699.5" y1="171" x2="699.5" y2="183"/>
<line fill="none" stroke="#000000" stroke-miterlimit="10" x1="699" y1="183.5" x2="71" y2="183.5"/>
<line fill="none" stroke="#000000" stroke-miterlimit="10" x1="70.5" y1="184" x2="70.5" y2="142"/>
<polygon points="65.1,152 70.7,142.3 76.2,152 "/>
<polygon points="487,120.3 496.7,125.8 487,131.4 "/>
<line fill="none" stroke="#000000" stroke-miterlimit="10" x1="640" y1="123.5" x2="612" y2="123.5"/>
<rect x="13.8" y="66.3" fill="none" width="132.8" height="16.5"/>
<text transform="matrix(1 0 0 1 16.0376 74.7701)" font-family="'MyriadPro-Regular'" font-size="12">REGISTRIRAN UPORABNIK</text>
<g>
	<rect x="23.2" y="308.3" fill="#FFFFFF" stroke="#000000" stroke-miterlimit="10" width="115.3" height="36"/>
	<rect x="23.2" y="309" fill="none" width="115.3" height="35.3"/>
	<text transform="matrix(1 0 0 1 48.6087 328.0999)" font-family="'MyriadPro-Regular'" font-size="10">LANDING PAGE</text>
</g>
<g>
	<rect x="182.2" y="308.3" fill="#FFFFFF" stroke="#000000" stroke-miterlimit="10" width="115.3" height="36"/>
	<rect x="182.2" y="309" fill="none" width="115.3" height="35.3"/>
	<text transform="matrix(1 0 0 1 188.2337 328.0999)" font-family="'MyriadPro-Regular'" font-size="10">STRAN ZA REGISTRACIJO</text>
</g>
<polygon fill="#FFFFFF" stroke="#000000" stroke-miterlimit="10" points="396.5,278.6 336.4,326.7 396.5,374.7 456.6,326.7 "/>
<rect x="364" y="315.3" fill="none" width="64" height="26"/>
<text transform="matrix(1 0 0 1 376.3654 322.4334)"><tspan x="0" y="0" font-family="'MyriadPro-Regular'" font-size="10">USPEŠNA </tspan><tspan x="-11.7" y="12" font-family="'MyriadPro-Regular'" font-size="10">REGISTRACIJA?</tspan></text>
<line fill="none" stroke="#000000" stroke-miterlimit="10" x1="138" y1="326.5" x2="182" y2="326.5"/>
<line fill="none" stroke="#000000" stroke-miterlimit="10" x1="297.5" y1="326.3" x2="336.4" y2="326.7"/>
<line fill="none" stroke="#000000" stroke-miterlimit="10" x1="396.5" y1="278.6" x2="396" y2="223.3"/>
<line fill="none" stroke="#000000" stroke-miterlimit="10" x1="396" y1="223.5" x2="240" y2="223.5"/>
<line fill="none" stroke="#000000" stroke-miterlimit="10" x1="239.5" y1="224" x2="239.5" y2="308"/>
<rect x="301.7" y="210.7" fill="none" width="47.3" height="18.8"/>
<text transform="matrix(1 0 0 1 319.5835 217.7666)" font-family="'MyriadPro-Regular'" font-size="10">NE</text>
<polygon points="245.2,299 239.7,308.7 234.1,299 "/>
<line fill="none" stroke="#000000" stroke-miterlimit="10" x1="457" y1="327.5" x2="849" y2="327.5"/>
<rect x="637.8" y="315.3" fill="none" width="47.3" height="18.8"/>
<text transform="matrix(1 0 0 1 655.071 322.4333)" font-family="'MyriadPro-Regular'" font-size="10">DA</text>
<rect x="4.5" y="269.8" fill="none" width="152.6" height="16.5"/>
<text transform="matrix(1 0 0 1 9.7283 278.27)" font-family="'MyriadPro-Regular'" font-size="12">NEREGISTRIRAN UPORABNIK</text>
<line fill="none" stroke="#000000" stroke-miterlimit="10" x1="554.5" y1="22" x2="554.5" y2="106"/>
<polygon points="560.2,97 554.7,106.7 549.1,97 "/>
<line fill="none" stroke="#000000" stroke-miterlimit="10" x1="849.5" y1="328" x2="849.5" y2="22"/>
<line fill="none" stroke="#000000" stroke-miterlimit="10" x1="850" y1="22.5" x2="554" y2="22.5"/>
<g>
	<rect x="26.2" y="540.3" fill="#FFFFFF" stroke="#000000" stroke-miterlimit="10" width="115.3" height="36"/>
	<rect x="26.2" y="541" fill="none" width="115.3" height="35.3"/>
	<text transform="matrix(1 0 0 1 51.6087 560.0999)" font-family="'MyriadPro-Regular'" font-size="10">LANDING PAGE</text>
</g>
<g>
	<rect x="185.2" y="540.3" fill="#FFFFFF" stroke="#000000" stroke-miterlimit="10" width="115.3" height="36"/>
	<rect x="185.2" y="541" fill="none" width="115.3" height="35.3"/>
	<text transform="matrix(1 0 0 1 207.1883 560.0999)" font-family="'MyriadPro-Regular'" font-size="10">PRIJAVNA STRAN</text>
</g>
<polygon fill="#FFFFFF" stroke="#000000" stroke-miterlimit="10" points="399.5,510.6 339.4,558.7 399.5,606.7 459.6,558.7 "/>
<rect x="367" y="547.3" fill="none" width="64" height="26"/>
<text transform="matrix(1 0 0 1 379.3654 554.4334)"><tspan x="0" y="0" font-family="'MyriadPro-Regular'" font-size="10">USPEŠNA </tspan><tspan x="0.3" y="12" font-family="'MyriadPro-Regular'" font-size="10">PRIJAVA?</tspan></text>
<line fill="none" stroke="#000000" stroke-miterlimit="10" x1="141" y1="558.5" x2="185" y2="558.5"/>
<line fill="none" stroke="#000000" stroke-miterlimit="10" x1="300.5" y1="558.3" x2="339.4" y2="558.7"/>
<line fill="none" stroke="#000000" stroke-miterlimit="10" x1="399.5" y1="510.6" x2="399" y2="455.3"/>
<line fill="none" stroke="#000000" stroke-miterlimit="10" x1="399" y1="455.5" x2="243" y2="455.5"/>
<line fill="none" stroke="#000000" stroke-miterlimit="10" x1="242.5" y1="456" x2="242.5" y2="540"/>
<rect x="304.7" y="442.7" fill="none" width="47.3" height="18.8"/>
<text transform="matrix(1 0 0 1 322.5835 449.7666)" font-family="'MyriadPro-Regular'" font-size="10">NE</text>
<polygon points="248.2,531 242.7,540.7 237.1,531 "/>
<g>
	<rect x="501.5" y="540.3" fill="#FFFFFF" stroke="#000000" stroke-miterlimit="10" width="115.3" height="36"/>
	<rect x="501.5" y="541" fill="none" width="115.3" height="35.3"/>
	<text transform="matrix(1 0 0 1 519.1866 560.0999)" font-family="'MyriadPro-Regular'" font-size="10">NADZORNA STRAN</text>
</g>
<line fill="none" stroke="#000000" stroke-miterlimit="10" x1="460" y1="559.5" x2="502" y2="559.5"/>
<rect x="456" y="548.9" fill="none" width="47.3" height="18.8"/>
<text transform="matrix(1 0 0 1 473.2767 556.0166)" font-family="'MyriadPro-Regular'" font-size="10">DA</text>
<polygon fill="#FFFFFF" stroke="#000000" stroke-miterlimit="10" points="704.9,508.5 644.8,556.6 704.9,604.7 765,556.6 "/>
<rect x="672.4" y="551.3" fill="none" width="64" height="26"/>
<text transform="matrix(1 0 0 1 686.8639 558.3502)" font-family="'MyriadPro-Regular'" font-size="10">ODJAVA</text>
<line fill="none" stroke="#000000" stroke-miterlimit="10" x1="704.5" y1="605" x2="704.5" y2="617"/>
<line fill="none" stroke="#000000" stroke-miterlimit="10" x1="704" y1="617.5" x2="76" y2="617.5"/>
<line fill="none" stroke="#000000" stroke-miterlimit="10" x1="75.5" y1="618" x2="75.5" y2="576"/>
<polygon points="70.1,586 75.7,576.3 81.2,586 "/>
<polygon points="492,554.3 501.7,559.8 492,565.4 "/>
<line fill="none" stroke="#000000" stroke-miterlimit="10" x1="645" y1="557.5" x2="617" y2="557.5"/>
<rect x="24.8" y="498.8" fill="none" width="118" height="16.5"/>
<text transform="matrix(1 0 0 1 41.3416 507.27)" font-family="'MyriadPro-Regular'" font-size="12">ADMINISTRATOR</text>
</svg>
