<?xml version="1.0" encoding="utf-8"?>
<!-- Generator: Adobe Illustrator 18.1.1, SVG Export Plug-In . SVG Version: 6.00 Build 0)  -->
<svg version="1.1" id="Layer_1" xmlns="http://www.w3.org/2000/svg" xmlns:xlink="http://www.w3.org/1999/xlink" x="0px" y="0px"
	 viewBox="0 0 350 560" enable-background="new 0 0 350 560" xml:space="preserve">
<rect fill="#E6E6E6" stroke="#B3B3B3" stroke-miterlimit="10" width="350" height="48.5"/>
<rect x="17.3" y="9.3" fill="#FFFFFF" stroke="#000000" stroke-miterlimit="10" width="78" height="29.7"/>
<rect x="25" y="18.5" fill="none" width="62" height="19"/>
<text transform="matrix(1 0 0 1 32.6006 27.02)" font-family="'MyriadPro-Regular'" font-size="12">Site Logo</text>
<rect x="113.5" y="0.5" fill="#B3B3B3" stroke="#B3B3B3" stroke-miterlimit="10" width="79" height="48"/>
<rect x="192.5" y="0.5" fill="#CCCCCC" stroke="#B3B3B3" stroke-miterlimit="10" width="79" height="48"/>
<rect x="271.5" y="0.5" fill="#CCCCCC" stroke="#B3B3B3" stroke-miterlimit="10" width="78" height="48"/>
<g>
	<rect x="295" y="9.3" fill="#FFFFFF" stroke="#000000" stroke-miterlimit="10" width="31.2" height="31.2"/>
	<line fill="none" stroke="#000000" stroke-miterlimit="10" x1="295" y1="40.5" x2="326.2" y2="9.3"/>
	<line fill="none" stroke="#000000" stroke-miterlimit="10" x1="326.2" y1="40.5" x2="295" y2="9.3"/>
</g>
<g>
	<rect x="137" y="9.3" fill="#FFFFFF" stroke="#000000" stroke-miterlimit="10" width="31.2" height="31.2"/>
	<line fill="none" stroke="#000000" stroke-miterlimit="10" x1="137" y1="40.5" x2="168.2" y2="9.3"/>
	<line fill="none" stroke="#000000" stroke-miterlimit="10" x1="168.2" y1="40.5" x2="137" y2="9.3"/>
</g>
<rect x="140.2" y="1.7" fill="none" width="24.7" height="7.7"/>
<text transform="matrix(1 0 0 1 145.7813 5.9263)" font-family="'MyriadPro-Regular'" font-size="6">Users</text>
<g>
	<rect x="216" y="9.3" fill="#FFFFFF" stroke="#000000" stroke-miterlimit="10" width="31.2" height="31.2"/>
	<line fill="none" stroke="#000000" stroke-miterlimit="10" x1="216" y1="40.5" x2="247.2" y2="9.3"/>
	<line fill="none" stroke="#000000" stroke-miterlimit="10" x1="247.2" y1="40.5" x2="216" y2="9.3"/>
</g>
<rect x="219.2" y="1.7" fill="none" width="24.7" height="7.7"/>
<text transform="matrix(1 0 0 1 223.416 5.9263)" font-family="'MyriadPro-Regular'" font-size="6">Circles</text>
<rect x="298.2" y="1.7" fill="none" width="24.7" height="7.7"/>
<text transform="matrix(1 0 0 1 302.3145 5.9263)" font-family="'MyriadPro-Regular'" font-size="6">Events</text>
<rect y="48.5" fill="#E6E6E6" stroke="#CCCCCC" stroke-miterlimit="10" width="350" height="27.5"/>
<rect x="58" y="52.5" fill="#FFFFFF" stroke="#000000" stroke-miterlimit="10" width="234" height="19"/>
<g>
	<circle fill="#FFFFFF" stroke="#000000" stroke-width="2" stroke-miterlimit="10" cx="277.6" cy="59.9" r="3.6"/>
	<line fill="none" stroke="#000000" stroke-width="2" stroke-miterlimit="10" x1="286.7" y1="68.8" x2="279.6" y2="61.8"/>
</g>
<rect x="62.3" y="57" fill="none" width="130" height="10"/>
<text transform="matrix(1 0 0 1 62.3335 65.52)" font-family="'MyriadPro-Regular'" font-size="12">Search for user</text>
<g>
	<defs>
		<rect id="SVGID_1_" y="76" width="349.5" height="484"/>
	</defs>
	<clipPath id="SVGID_2_">
		<use xlink:href="#SVGID_1_"  overflow="visible"/>
	</clipPath>
	
		<rect x="-0.5" y="76.5" clip-path="url(#SVGID_2_)" fill="#FFFFFF" stroke="#CCCCCC" stroke-miterlimit="10" width="88" height="106"/>
	
		<rect x="87.5" y="76.5" clip-path="url(#SVGID_2_)" fill="#FFFFFF" stroke="#CCCCCC" stroke-miterlimit="10" width="87" height="106"/>
	
		<rect x="174.5" y="76.5" clip-path="url(#SVGID_2_)" fill="#FFFFFF" stroke="#CCCCCC" stroke-miterlimit="10" width="88" height="106"/>
	
		<rect x="262.5" y="76.5" clip-path="url(#SVGID_2_)" fill="#FFFFFF" stroke="#CCCCCC" stroke-miterlimit="10" width="87" height="106"/>
	
		<rect x="-0.5" y="182.5" clip-path="url(#SVGID_2_)" fill="#FFFFFF" stroke="#CCCCCC" stroke-miterlimit="10" width="88" height="107"/>
	
		<rect x="87.5" y="182.5" clip-path="url(#SVGID_2_)" fill="#FFFFFF" stroke="#CCCCCC" stroke-miterlimit="10" width="87" height="107"/>
	
		<rect x="174.5" y="182.5" clip-path="url(#SVGID_2_)" fill="#FFFFFF" stroke="#CCCCCC" stroke-miterlimit="10" width="88" height="107"/>
	
		<rect x="262.5" y="182.5" clip-path="url(#SVGID_2_)" fill="#FFFFFF" stroke="#CCCCCC" stroke-miterlimit="10" width="87" height="107"/>
	
		<rect x="-0.5" y="289.5" clip-path="url(#SVGID_2_)" fill="#FFFFFF" stroke="#CCCCCC" stroke-miterlimit="10" width="88" height="107"/>
	
		<rect x="87.5" y="289.5" clip-path="url(#SVGID_2_)" fill="#FFFFFF" stroke="#CCCCCC" stroke-miterlimit="10" width="87" height="107"/>
	
		<rect x="174.5" y="289.5" clip-path="url(#SVGID_2_)" fill="#FFFFFF" stroke="#CCCCCC" stroke-miterlimit="10" width="88" height="107"/>
	
		<rect x="262.5" y="289.5" clip-path="url(#SVGID_2_)" fill="#FFFFFF" stroke="#CCCCCC" stroke-miterlimit="10" width="87" height="107"/>
	
		<rect x="-0.5" y="396.5" clip-path="url(#SVGID_2_)" fill="#FFFFFF" stroke="#CCCCCC" stroke-miterlimit="10" width="88" height="107"/>
	
		<rect x="87.5" y="396.5" clip-path="url(#SVGID_2_)" fill="#FFFFFF" stroke="#CCCCCC" stroke-miterlimit="10" width="87" height="107"/>
	
		<rect x="174.5" y="396.5" clip-path="url(#SVGID_2_)" fill="#FFFFFF" stroke="#CCCCCC" stroke-miterlimit="10" width="88" height="107"/>
	
		<rect x="262.5" y="396.5" clip-path="url(#SVGID_2_)" fill="#FFFFFF" stroke="#CCCCCC" stroke-miterlimit="10" width="87" height="107"/>
	
		<rect x="-0.5" y="503.5" clip-path="url(#SVGID_2_)" fill="#FFFFFF" stroke="#CCCCCC" stroke-miterlimit="10" width="88" height="107"/>
	
		<rect x="87.5" y="503.5" clip-path="url(#SVGID_2_)" fill="#FFFFFF" stroke="#CCCCCC" stroke-miterlimit="10" width="87" height="107"/>
	
		<rect x="174.5" y="503.5" clip-path="url(#SVGID_2_)" fill="#FFFFFF" stroke="#CCCCCC" stroke-miterlimit="10" width="88" height="107"/>
	
		<rect x="262.5" y="503.5" clip-path="url(#SVGID_2_)" fill="#FFFFFF" stroke="#CCCCCC" stroke-miterlimit="10" width="87" height="107"/>
	<g clip-path="url(#SVGID_2_)">
		<rect x="0" y="76" fill="none" width="87" height="106"/>
		<g>
			<g>
				<rect x="18" y="91.4" fill="#FFFFFF" stroke="#000000" stroke-miterlimit="10" width="51" height="51"/>
				<line fill="none" stroke="#000000" stroke-miterlimit="10" x1="18" y1="142.4" x2="69" y2="91.4"/>
				<line fill="none" stroke="#000000" stroke-miterlimit="10" x1="69" y1="142.4" x2="18" y2="91.4"/>
			</g>
			<g>
				<rect x="18" y="152.8" fill="#FFFFFF" stroke="#000000" stroke-miterlimit="10" width="51" height="14.3"/>
				<rect x="18" y="157" fill="none" width="51" height="6.7"/>
				<text transform="matrix(1 0 0 1 26.5073 162.6589)" font-family="'MyriadPro-Regular'" font-size="8">Username</text>
			</g>
		</g>
	</g>
	<g clip-path="url(#SVGID_2_)">
		<rect x="87.5" y="75.5" fill="none" width="87" height="106"/>
		<g>
			<g>
				<rect x="105.5" y="90.9" fill="#FFFFFF" stroke="#000000" stroke-miterlimit="10" width="51" height="51"/>
				<line fill="none" stroke="#000000" stroke-miterlimit="10" x1="105.5" y1="141.9" x2="156.5" y2="90.9"/>
				<line fill="none" stroke="#000000" stroke-miterlimit="10" x1="156.5" y1="141.9" x2="105.5" y2="90.9"/>
			</g>
			<g>
				<rect x="105.5" y="152.3" fill="#FFFFFF" stroke="#000000" stroke-miterlimit="10" width="51" height="14.3"/>
				<rect x="105.5" y="156.5" fill="none" width="51" height="6.7"/>
				<text transform="matrix(1 0 0 1 114.0282 162.1589)" font-family="'MyriadPro-Regular'" font-size="8">Username</text>
			</g>
		</g>
	</g>
	<g clip-path="url(#SVGID_2_)">
		<rect x="175" y="75.5" fill="none" width="87" height="106"/>
		<g>
			<g>
				<rect x="193" y="90.9" fill="#FFFFFF" stroke="#000000" stroke-miterlimit="10" width="51" height="51"/>
				<line fill="none" stroke="#000000" stroke-miterlimit="10" x1="193" y1="141.9" x2="244" y2="90.9"/>
				<line fill="none" stroke="#000000" stroke-miterlimit="10" x1="244" y1="141.9" x2="193" y2="90.9"/>
			</g>
			<g>
				<rect x="193" y="152.3" fill="#FFFFFF" stroke="#000000" stroke-miterlimit="10" width="51" height="14.3"/>
				<rect x="193" y="156.5" fill="none" width="51" height="6.7"/>
				<text transform="matrix(1 0 0 1 201.5073 162.1589)" font-family="'MyriadPro-Regular'" font-size="8">Username</text>
			</g>
		</g>
	</g>
	<g clip-path="url(#SVGID_2_)">
		<rect x="263" y="75.5" fill="none" width="87" height="106"/>
		<g>
			<g>
				<rect x="281" y="90.9" fill="#FFFFFF" stroke="#000000" stroke-miterlimit="10" width="51" height="51"/>
				<line fill="none" stroke="#000000" stroke-miterlimit="10" x1="281" y1="141.9" x2="332" y2="90.9"/>
				<line fill="none" stroke="#000000" stroke-miterlimit="10" x1="332" y1="141.9" x2="281" y2="90.9"/>
			</g>
			<g>
				<rect x="281" y="152.3" fill="#FFFFFF" stroke="#000000" stroke-miterlimit="10" width="51" height="14.3"/>
				<rect x="281" y="156.5" fill="none" width="51" height="6.7"/>
				<text transform="matrix(1 0 0 1 289.5073 162.1589)" font-family="'MyriadPro-Regular'" font-size="8">Username</text>
			</g>
		</g>
	</g>
	<g clip-path="url(#SVGID_2_)">
		<rect x="0" y="183" fill="none" width="87" height="106"/>
		<g>
			<g>
				<rect x="18" y="198.4" fill="#FFFFFF" stroke="#000000" stroke-miterlimit="10" width="51" height="51"/>
				<line fill="none" stroke="#000000" stroke-miterlimit="10" x1="18" y1="249.4" x2="69" y2="198.4"/>
				<line fill="none" stroke="#000000" stroke-miterlimit="10" x1="69" y1="249.4" x2="18" y2="198.4"/>
			</g>
			<g>
				<rect x="18" y="259.8" fill="#FFFFFF" stroke="#000000" stroke-miterlimit="10" width="51" height="14.3"/>
				<rect x="18" y="264" fill="none" width="51" height="6.7"/>
				<text transform="matrix(1 0 0 1 26.5073 269.6589)" font-family="'MyriadPro-Regular'" font-size="8">Username</text>
			</g>
		</g>
	</g>
	<g clip-path="url(#SVGID_2_)">
		<rect x="87.5" y="182.5" fill="none" width="87" height="106"/>
		<g>
			<g>
				<rect x="105.5" y="197.9" fill="#FFFFFF" stroke="#000000" stroke-miterlimit="10" width="51" height="51"/>
				<line fill="none" stroke="#000000" stroke-miterlimit="10" x1="105.5" y1="248.9" x2="156.5" y2="197.9"/>
				<line fill="none" stroke="#000000" stroke-miterlimit="10" x1="156.5" y1="248.9" x2="105.5" y2="197.9"/>
			</g>
			<g>
				<rect x="105.5" y="259.3" fill="#FFFFFF" stroke="#000000" stroke-miterlimit="10" width="51" height="14.3"/>
				<rect x="105.5" y="263.5" fill="none" width="51" height="6.7"/>
				<text transform="matrix(1 0 0 1 114.0282 269.1589)" font-family="'MyriadPro-Regular'" font-size="8">Username</text>
			</g>
		</g>
	</g>
	<g clip-path="url(#SVGID_2_)">
		<rect x="175" y="182.5" fill="none" width="87" height="106"/>
		<g>
			<g>
				<rect x="193" y="197.9" fill="#FFFFFF" stroke="#000000" stroke-miterlimit="10" width="51" height="51"/>
				<line fill="none" stroke="#000000" stroke-miterlimit="10" x1="193" y1="248.9" x2="244" y2="197.9"/>
				<line fill="none" stroke="#000000" stroke-miterlimit="10" x1="244" y1="248.9" x2="193" y2="197.9"/>
			</g>
			<g>
				<rect x="193" y="259.3" fill="#FFFFFF" stroke="#000000" stroke-miterlimit="10" width="51" height="14.3"/>
				<rect x="193" y="263.5" fill="none" width="51" height="6.7"/>
				<text transform="matrix(1 0 0 1 201.5073 269.1589)" font-family="'MyriadPro-Regular'" font-size="8">Username</text>
			</g>
		</g>
	</g>
	<g clip-path="url(#SVGID_2_)">
		<rect x="263" y="182.5" fill="none" width="87" height="106"/>
		<g>
			<g>
				<rect x="281" y="197.9" fill="#FFFFFF" stroke="#000000" stroke-miterlimit="10" width="51" height="51"/>
				<line fill="none" stroke="#000000" stroke-miterlimit="10" x1="281" y1="248.9" x2="332" y2="197.9"/>
				<line fill="none" stroke="#000000" stroke-miterlimit="10" x1="332" y1="248.9" x2="281" y2="197.9"/>
			</g>
			<g>
				<rect x="281" y="259.3" fill="#FFFFFF" stroke="#000000" stroke-miterlimit="10" width="51" height="14.3"/>
				<rect x="281" y="263.5" fill="none" width="51" height="6.7"/>
				<text transform="matrix(1 0 0 1 289.5073 269.1589)" font-family="'MyriadPro-Regular'" font-size="8">Username</text>
			</g>
		</g>
	</g>
	<g clip-path="url(#SVGID_2_)">
		<rect x="0" y="290" fill="none" width="87" height="106"/>
		<g>
			<g>
				<rect x="18" y="305.4" fill="#FFFFFF" stroke="#000000" stroke-miterlimit="10" width="51" height="51"/>
				<line fill="none" stroke="#000000" stroke-miterlimit="10" x1="18" y1="356.4" x2="69" y2="305.4"/>
				<line fill="none" stroke="#000000" stroke-miterlimit="10" x1="69" y1="356.4" x2="18" y2="305.4"/>
			</g>
			<g>
				<rect x="18" y="366.8" fill="#FFFFFF" stroke="#000000" stroke-miterlimit="10" width="51" height="14.3"/>
				<rect x="18" y="371" fill="none" width="51" height="6.7"/>
				<text transform="matrix(1 0 0 1 26.5073 376.6589)" font-family="'MyriadPro-Regular'" font-size="8">Username</text>
			</g>
		</g>
	</g>
	<g clip-path="url(#SVGID_2_)">
		<rect x="87.5" y="289.5" fill="none" width="87" height="106"/>
		<g>
			<g>
				<rect x="105.5" y="304.9" fill="#FFFFFF" stroke="#000000" stroke-miterlimit="10" width="51" height="51"/>
				<line fill="none" stroke="#000000" stroke-miterlimit="10" x1="105.5" y1="355.9" x2="156.5" y2="304.9"/>
				<line fill="none" stroke="#000000" stroke-miterlimit="10" x1="156.5" y1="355.9" x2="105.5" y2="304.9"/>
			</g>
			<g>
				<rect x="105.5" y="366.3" fill="#FFFFFF" stroke="#000000" stroke-miterlimit="10" width="51" height="14.3"/>
				<rect x="105.5" y="370.5" fill="none" width="51" height="6.7"/>
				<text transform="matrix(1 0 0 1 114.0282 376.1589)" font-family="'MyriadPro-Regular'" font-size="8">Username</text>
			</g>
		</g>
	</g>
	<g clip-path="url(#SVGID_2_)">
		<rect x="175" y="289.5" fill="none" width="87" height="106"/>
		<g>
			<g>
				<rect x="193" y="304.9" fill="#FFFFFF" stroke="#000000" stroke-miterlimit="10" width="51" height="51"/>
				<line fill="none" stroke="#000000" stroke-miterlimit="10" x1="193" y1="355.9" x2="244" y2="304.9"/>
				<line fill="none" stroke="#000000" stroke-miterlimit="10" x1="244" y1="355.9" x2="193" y2="304.9"/>
			</g>
			<g>
				<rect x="193" y="366.3" fill="#FFFFFF" stroke="#000000" stroke-miterlimit="10" width="51" height="14.3"/>
				<rect x="193" y="370.5" fill="none" width="51" height="6.7"/>
				<text transform="matrix(1 0 0 1 201.5073 376.1589)" font-family="'MyriadPro-Regular'" font-size="8">Username</text>
			</g>
		</g>
	</g>
	<g clip-path="url(#SVGID_2_)">
		<rect x="263" y="289.5" fill="none" width="87" height="106"/>
		<g>
			<g>
				<rect x="281" y="304.9" fill="#FFFFFF" stroke="#000000" stroke-miterlimit="10" width="51" height="51"/>
				<line fill="none" stroke="#000000" stroke-miterlimit="10" x1="281" y1="355.9" x2="332" y2="304.9"/>
				<line fill="none" stroke="#000000" stroke-miterlimit="10" x1="332" y1="355.9" x2="281" y2="304.9"/>
			</g>
			<g>
				<rect x="281" y="366.3" fill="#FFFFFF" stroke="#000000" stroke-miterlimit="10" width="51" height="14.3"/>
				<rect x="281" y="370.5" fill="none" width="51" height="6.7"/>
				<text transform="matrix(1 0 0 1 289.5073 376.1589)" font-family="'MyriadPro-Regular'" font-size="8">Username</text>
			</g>
		</g>
	</g>
	<g clip-path="url(#SVGID_2_)">
		<rect x="0" y="397" fill="none" width="87" height="106"/>
		<g>
			<g>
				<rect x="18" y="412.4" fill="#FFFFFF" stroke="#000000" stroke-miterlimit="10" width="51" height="51"/>
				<line fill="none" stroke="#000000" stroke-miterlimit="10" x1="18" y1="463.4" x2="69" y2="412.4"/>
				<line fill="none" stroke="#000000" stroke-miterlimit="10" x1="69" y1="463.4" x2="18" y2="412.4"/>
			</g>
			<g>
				<rect x="18" y="473.8" fill="#FFFFFF" stroke="#000000" stroke-miterlimit="10" width="51" height="14.3"/>
				<rect x="18" y="478" fill="none" width="51" height="6.7"/>
				<text transform="matrix(1 0 0 1 26.5073 483.6588)" font-family="'MyriadPro-Regular'" font-size="8">Username</text>
			</g>
		</g>
	</g>
	<g clip-path="url(#SVGID_2_)">
		<rect x="87.5" y="396.5" fill="none" width="87" height="106"/>
		<g>
			<g>
				<rect x="105.5" y="411.9" fill="#FFFFFF" stroke="#000000" stroke-miterlimit="10" width="51" height="51"/>
				<line fill="none" stroke="#000000" stroke-miterlimit="10" x1="105.5" y1="462.9" x2="156.5" y2="411.9"/>
				<line fill="none" stroke="#000000" stroke-miterlimit="10" x1="156.5" y1="462.9" x2="105.5" y2="411.9"/>
			</g>
			<g>
				<rect x="105.5" y="473.3" fill="#FFFFFF" stroke="#000000" stroke-miterlimit="10" width="51" height="14.3"/>
				<rect x="105.5" y="477.5" fill="none" width="51" height="6.7"/>
				<text transform="matrix(1 0 0 1 114.0282 483.1589)" font-family="'MyriadPro-Regular'" font-size="8">Username</text>
			</g>
		</g>
	</g>
	<g clip-path="url(#SVGID_2_)">
		<rect x="175" y="396.5" fill="none" width="87" height="106"/>
		<g>
			<g>
				<rect x="193" y="411.9" fill="#FFFFFF" stroke="#000000" stroke-miterlimit="10" width="51" height="51"/>
				<line fill="none" stroke="#000000" stroke-miterlimit="10" x1="193" y1="462.9" x2="244" y2="411.9"/>
				<line fill="none" stroke="#000000" stroke-miterlimit="10" x1="244" y1="462.9" x2="193" y2="411.9"/>
			</g>
			<g>
				<rect x="193" y="473.3" fill="#FFFFFF" stroke="#000000" stroke-miterlimit="10" width="51" height="14.3"/>
				<rect x="193" y="477.5" fill="none" width="51" height="6.7"/>
				<text transform="matrix(1 0 0 1 201.5073 483.1589)" font-family="'MyriadPro-Regular'" font-size="8">Username</text>
			</g>
		</g>
	</g>
	<g clip-path="url(#SVGID_2_)">
		<rect x="263" y="396.5" fill="none" width="87" height="106"/>
		<g>
			<g>
				<rect x="281" y="411.9" fill="#FFFFFF" stroke="#000000" stroke-miterlimit="10" width="51" height="51"/>
				<line fill="none" stroke="#000000" stroke-miterlimit="10" x1="281" y1="462.9" x2="332" y2="411.9"/>
				<line fill="none" stroke="#000000" stroke-miterlimit="10" x1="332" y1="462.9" x2="281" y2="411.9"/>
			</g>
			<g>
				<rect x="281" y="473.3" fill="#FFFFFF" stroke="#000000" stroke-miterlimit="10" width="51" height="14.3"/>
				<rect x="281" y="477.5" fill="none" width="51" height="6.7"/>
				<text transform="matrix(1 0 0 1 289.5073 483.1588)" font-family="'MyriadPro-Regular'" font-size="8">Username</text>
			</g>
		</g>
	</g>
	<g clip-path="url(#SVGID_2_)">
		<rect x="0" y="505" fill="none" width="87" height="106"/>
		<g>
			<g>
				<rect x="18" y="520.4" fill="#FFFFFF" stroke="#000000" stroke-miterlimit="10" width="51" height="51"/>
				<line fill="none" stroke="#000000" stroke-miterlimit="10" x1="18" y1="571.4" x2="69" y2="520.4"/>
				<line fill="none" stroke="#000000" stroke-miterlimit="10" x1="69" y1="571.4" x2="18" y2="520.4"/>
			</g>
			<g>
				<rect x="18" y="581.8" fill="#FFFFFF" stroke="#000000" stroke-miterlimit="10" width="51" height="14.3"/>
				<rect x="18" y="586" fill="none" width="51" height="6.7"/>
				<text transform="matrix(1 0 0 1 26.5073 591.6588)" font-family="'MyriadPro-Regular'" font-size="8">Username</text>
			</g>
		</g>
	</g>
	<g clip-path="url(#SVGID_2_)">
		<rect x="87.5" y="504.5" fill="none" width="87" height="106"/>
		<g>
			<g>
				<rect x="105.5" y="519.9" fill="#FFFFFF" stroke="#000000" stroke-miterlimit="10" width="51" height="51"/>
				<line fill="none" stroke="#000000" stroke-miterlimit="10" x1="105.5" y1="570.9" x2="156.5" y2="519.9"/>
				<line fill="none" stroke="#000000" stroke-miterlimit="10" x1="156.5" y1="570.9" x2="105.5" y2="519.9"/>
			</g>
			<g>
				<rect x="105.5" y="581.3" fill="#FFFFFF" stroke="#000000" stroke-miterlimit="10" width="51" height="14.3"/>
				<rect x="105.5" y="585.5" fill="none" width="51" height="6.7"/>
				<text transform="matrix(1 0 0 1 114.0282 591.1589)" font-family="'MyriadPro-Regular'" font-size="8">Username</text>
			</g>
		</g>
	</g>
	<g clip-path="url(#SVGID_2_)">
		<rect x="175" y="504.5" fill="none" width="87" height="106"/>
		<g>
			<g>
				<rect x="193" y="519.9" fill="#FFFFFF" stroke="#000000" stroke-miterlimit="10" width="51" height="51"/>
				<line fill="none" stroke="#000000" stroke-miterlimit="10" x1="193" y1="570.9" x2="244" y2="519.9"/>
				<line fill="none" stroke="#000000" stroke-miterlimit="10" x1="244" y1="570.9" x2="193" y2="519.9"/>
			</g>
			<g>
				<rect x="193" y="581.3" fill="#FFFFFF" stroke="#000000" stroke-miterlimit="10" width="51" height="14.3"/>
				<rect x="193" y="585.5" fill="none" width="51" height="6.7"/>
				<text transform="matrix(1 0 0 1 201.5073 591.1589)" font-family="'MyriadPro-Regular'" font-size="8">Username</text>
			</g>
		</g>
	</g>
	<g clip-path="url(#SVGID_2_)">
		<rect x="263" y="504.5" fill="none" width="87" height="106"/>
		<g>
			<g>
				<rect x="281" y="519.9" fill="#FFFFFF" stroke="#000000" stroke-miterlimit="10" width="51" height="51"/>
				<line fill="none" stroke="#000000" stroke-miterlimit="10" x1="281" y1="570.9" x2="332" y2="519.9"/>
				<line fill="none" stroke="#000000" stroke-miterlimit="10" x1="332" y1="570.9" x2="281" y2="519.9"/>
			</g>
			<g>
				<rect x="281" y="581.3" fill="#FFFFFF" stroke="#000000" stroke-miterlimit="10" width="51" height="14.3"/>
				<rect x="281" y="585.5" fill="none" width="51" height="6.7"/>
				<text transform="matrix(1 0 0 1 289.5073 591.1588)" font-family="'MyriadPro-Regular'" font-size="8">Username</text>
			</g>
		</g>
	</g>
</g>
</svg>
