<?xml version="1.0" encoding="utf-8"?>
<!-- Generator: Adobe Illustrator 18.1.1, SVG Export Plug-In . SVG Version: 6.00 Build 0)  -->
<svg version="1.1" id="Layer_1" xmlns="http://www.w3.org/2000/svg" xmlns:xlink="http://www.w3.org/1999/xlink" x="0px" y="0px"
	 viewBox="0 0 800 560" enable-background="new 0 0 800 560" xml:space="preserve">
<rect x="127" y="72" fill="#FFFFFF" width="673" height="488"/>
<rect fill="#E6E6E6" stroke="#B3B3B3" stroke-miterlimit="10" width="800" height="48.5"/>
<rect x="17.3" y="9.3" fill="#FFFFFF" stroke="#000000" stroke-miterlimit="10" width="78" height="29.7"/>
<rect x="25" y="18.5" fill="none" width="62" height="19"/>
<text transform="matrix(1 0 0 1 32.6006 27.02)" font-family="'MyriadPro-Regular'" font-size="12">Site Logo</text>
<rect x="741.3" y="15.5" fill="#FFFFFF" stroke="#000000" stroke-miterlimit="10" width="43.3" height="19"/>
<rect x="745" y="20.1" fill="none" width="46" height="16.3"/>
<text transform="matrix(1 0 0 1 745.0004 28.6513)" font-family="'MyriadPro-Regular'" font-size="12">Logout</text>
<rect y="48.5" fill="#CCCCCC" stroke="#999999" stroke-miterlimit="10" width="127" height="511.5"/>
<g>
	<rect y="48.5" fill="#CCCCCC" stroke="#999999" stroke-miterlimit="10" width="127" height="33.5"/>
	<g>
		<rect x="19.3" y="59" fill="#FFFFFF" stroke="#000000" stroke-miterlimit="10" width="16" height="16"/>
		<line fill="none" stroke="#000000" stroke-miterlimit="10" x1="19.3" y1="75" x2="35.3" y2="59"/>
		<line fill="none" stroke="#000000" stroke-miterlimit="10" x1="34.8" y1="74.5" x2="19.3" y2="59"/>
	</g>
	<rect x="43.7" y="62" fill="none" width="72" height="13.7"/>
	<text transform="matrix(1 0 0 1 43.6665 70.52)" font-family="'MyriadPro-Regular'" font-size="12">Users</text>
	<rect x="21.2" y="53.8" fill="none" width="12.7" height="4"/>
	<text transform="matrix(1 0 0 1 21.1665 57.3206)" font-family="'MyriadPro-Regular'" font-size="5">ICON</text>
</g>
<rect x="127" y="48.5" fill="#B3B3B3" stroke="#999999" stroke-miterlimit="10" width="673" height="23.5"/>
<text transform="matrix(1 0 0 1 133.25 176)" fill="#B3B3B3" font-family="'MyriadPro-Regular'" font-size="10">...</text>
<g>
	<rect y="81.5" fill="#CCCCCC" stroke="#999999" stroke-miterlimit="10" width="127" height="33.5"/>
	<g>
		<rect x="19.3" y="92" fill="#FFFFFF" stroke="#000000" stroke-miterlimit="10" width="16" height="16"/>
		<line fill="none" stroke="#000000" stroke-miterlimit="10" x1="19.3" y1="108" x2="35.3" y2="92"/>
		<line fill="none" stroke="#000000" stroke-miterlimit="10" x1="34.8" y1="107.5" x2="19.3" y2="92"/>
	</g>
	<rect x="43.7" y="95" fill="none" width="72" height="13.7"/>
	<text transform="matrix(1 0 0 1 43.6665 103.52)" font-family="'MyriadPro-Regular'" font-size="12">Circles</text>
	<rect x="21.2" y="86.8" fill="none" width="12.7" height="4"/>
	<text transform="matrix(1 0 0 1 21.1665 90.3206)" font-family="'MyriadPro-Regular'" font-size="5">ICON</text>
</g>
<g>
	<rect y="114.5" fill="#CCCCCC" stroke="#999999" stroke-miterlimit="10" width="127" height="33.5"/>
	<g>
		<rect x="19.3" y="125" fill="#FFFFFF" stroke="#000000" stroke-miterlimit="10" width="16" height="16"/>
		<line fill="none" stroke="#000000" stroke-miterlimit="10" x1="19.3" y1="141" x2="35.3" y2="125"/>
		<line fill="none" stroke="#000000" stroke-miterlimit="10" x1="34.8" y1="140.5" x2="19.3" y2="125"/>
	</g>
	<rect x="43.7" y="128" fill="none" width="72" height="13.7"/>
	<text transform="matrix(1 0 0 1 43.6665 136.52)" font-family="'MyriadPro-Regular'" font-size="12">Events</text>
	<rect x="21.2" y="119.8" fill="none" width="12.7" height="4"/>
	<text transform="matrix(1 0 0 1 21.1665 123.3206)" font-family="'MyriadPro-Regular'" font-size="5">ICON</text>
</g>
<g>
	<rect y="147.5" fill="#CCCCCC" stroke="#999999" stroke-miterlimit="10" width="127" height="33.5"/>
	<g>
		<rect x="19.3" y="158" fill="#FFFFFF" stroke="#000000" stroke-miterlimit="10" width="16" height="16"/>
		<line fill="none" stroke="#000000" stroke-miterlimit="10" x1="19.3" y1="174" x2="35.3" y2="158"/>
		<line fill="none" stroke="#000000" stroke-miterlimit="10" x1="34.8" y1="173.5" x2="19.3" y2="158"/>
	</g>
	<rect x="43.7" y="161" fill="none" width="72" height="13.7"/>
	<text transform="matrix(1 0 0 1 43.6665 169.52)" font-family="'MyriadPro-Regular'" font-size="12">Notifications</text>
	<rect x="21.2" y="152.8" fill="none" width="12.7" height="4"/>
	<text transform="matrix(1 0 0 1 21.1665 156.3206)" font-family="'MyriadPro-Regular'" font-size="5">ICON</text>
</g>
<g>
	<rect x="136" y="51" fill="#FFFFFF" stroke="#000000" stroke-miterlimit="10" width="234" height="19"/>
	<g>
		<circle fill="#FFFFFF" stroke="#000000" stroke-width="2" stroke-miterlimit="10" cx="355.6" cy="58.4" r="3.6"/>
		<line fill="none" stroke="#000000" stroke-width="2" stroke-miterlimit="10" x1="364.7" y1="67.3" x2="357.6" y2="60.3"/>
	</g>
	<rect x="140.3" y="55.5" fill="none" width="130" height="10"/>
	<text transform="matrix(1 0 0 1 140.3335 64.02)" font-family="'MyriadPro-Regular'" font-size="12">Search for user</text>
</g>
<rect x="558.7" y="86.8" fill="#E6E6E6" stroke="#B3B3B3" stroke-miterlimit="10" width="225.3" height="437.6"/>
<rect x="586" y="107.5" fill="#FFFFFF" stroke="#000000" stroke-miterlimit="10" width="172" height="172"/>
<line fill="none" stroke="#000000" stroke-miterlimit="10" x1="586" y1="279.5" x2="758" y2="107.5"/>
<line fill="none" stroke="#000000" stroke-miterlimit="10" x1="758" y1="279.5" x2="586" y2="107.5"/>
<rect x="596.3" y="298" fill="none" width="150" height="137.5"/>
<text transform="matrix(1 0 0 1 645.8753 306.52)"><tspan x="0" y="0" font-family="'MyriadPro-Regular'" font-size="12">Username </tspan><tspan x="25.5" y="14.4" font-family="'MyriadPro-Regular'" font-size="12"> </tspan><tspan x="-40.1" y="28.8" font-family="'MyriadPro-Regular'" font-size="12">Facebook ID(if connected) </tspan><tspan x="25.5" y="43.2" font-family="'MyriadPro-Regular'" font-size="12"> </tspan><tspan x="-6.6" y="57.6" font-family="'MyriadPro-Regular'" font-size="12">Date created </tspan><tspan x="25.5" y="72" font-family="'MyriadPro-Regular'" font-size="12"> </tspan><tspan x="-1.7" y="86.4" font-family="'MyriadPro-Regular'" font-size="12">Last online</tspan><tspan x="-19.4" y="115.2" font-family="'MyriadPro-Regular'" font-size="12">Number of events</tspan></text>
<g>
	<defs>
		<rect id="SVGID_1_" x="127" y="74" width="349.5" height="484"/>
	</defs>
	<clipPath id="SVGID_2_">
		<use xlink:href="#SVGID_1_"  overflow="visible"/>
	</clipPath>
	
		<rect x="126.5" y="74.5" clip-path="url(#SVGID_2_)" fill="#FFFFFF" stroke="#CCCCCC" stroke-miterlimit="10" width="88" height="106"/>
	
		<rect x="214.5" y="74.5" clip-path="url(#SVGID_2_)" fill="#FFFFFF" stroke="#CCCCCC" stroke-miterlimit="10" width="87" height="106"/>
	
		<rect x="301.5" y="74.5" clip-path="url(#SVGID_2_)" fill="#FFFFFF" stroke="#CCCCCC" stroke-miterlimit="10" width="88" height="106"/>
	
		<rect x="389.5" y="74.5" clip-path="url(#SVGID_2_)" fill="#FFFFFF" stroke="#CCCCCC" stroke-miterlimit="10" width="87" height="106"/>
	
		<rect x="126.5" y="180.5" clip-path="url(#SVGID_2_)" fill="#FFFFFF" stroke="#CCCCCC" stroke-miterlimit="10" width="88" height="107"/>
	
		<rect x="214.5" y="180.5" clip-path="url(#SVGID_2_)" fill="#FFFFFF" stroke="#CCCCCC" stroke-miterlimit="10" width="87" height="107"/>
	
		<rect x="301.5" y="180.5" clip-path="url(#SVGID_2_)" fill="#FFFFFF" stroke="#CCCCCC" stroke-miterlimit="10" width="88" height="107"/>
	
		<rect x="389.5" y="180.5" clip-path="url(#SVGID_2_)" fill="#FFFFFF" stroke="#CCCCCC" stroke-miterlimit="10" width="87" height="107"/>
	
		<rect x="126.5" y="287.5" clip-path="url(#SVGID_2_)" fill="#FFFFFF" stroke="#CCCCCC" stroke-miterlimit="10" width="88" height="107"/>
	
		<rect x="214.5" y="287.5" clip-path="url(#SVGID_2_)" fill="#FFFFFF" stroke="#CCCCCC" stroke-miterlimit="10" width="87" height="107"/>
	
		<rect x="301.5" y="287.5" clip-path="url(#SVGID_2_)" fill="#FFFFFF" stroke="#CCCCCC" stroke-miterlimit="10" width="88" height="107"/>
	
		<rect x="389.5" y="287.5" clip-path="url(#SVGID_2_)" fill="#FFFFFF" stroke="#CCCCCC" stroke-miterlimit="10" width="87" height="107"/>
	
		<rect x="126.5" y="394.5" clip-path="url(#SVGID_2_)" fill="#FFFFFF" stroke="#CCCCCC" stroke-miterlimit="10" width="88" height="107"/>
	
		<rect x="214.5" y="394.5" clip-path="url(#SVGID_2_)" fill="#FFFFFF" stroke="#CCCCCC" stroke-miterlimit="10" width="87" height="107"/>
	
		<rect x="301.5" y="394.5" clip-path="url(#SVGID_2_)" fill="#FFFFFF" stroke="#CCCCCC" stroke-miterlimit="10" width="88" height="107"/>
	
		<rect x="389.5" y="394.5" clip-path="url(#SVGID_2_)" fill="#FFFFFF" stroke="#CCCCCC" stroke-miterlimit="10" width="87" height="107"/>
	
		<rect x="126.5" y="501.5" clip-path="url(#SVGID_2_)" fill="#FFFFFF" stroke="#CCCCCC" stroke-miterlimit="10" width="88" height="107"/>
	
		<rect x="214.5" y="501.5" clip-path="url(#SVGID_2_)" fill="#FFFFFF" stroke="#CCCCCC" stroke-miterlimit="10" width="87" height="107"/>
	
		<rect x="301.5" y="501.5" clip-path="url(#SVGID_2_)" fill="#FFFFFF" stroke="#CCCCCC" stroke-miterlimit="10" width="88" height="107"/>
	
		<rect x="389.5" y="501.5" clip-path="url(#SVGID_2_)" fill="#FFFFFF" stroke="#CCCCCC" stroke-miterlimit="10" width="87" height="107"/>
	<g clip-path="url(#SVGID_2_)">
		<rect x="127" y="74" fill="none" width="87" height="106"/>
		<g>
			<g>
				<rect x="145" y="89.4" fill="#FFFFFF" stroke="#000000" stroke-miterlimit="10" width="51" height="51"/>
				<line fill="none" stroke="#000000" stroke-miterlimit="10" x1="145" y1="140.4" x2="196" y2="89.4"/>
				<line fill="none" stroke="#000000" stroke-miterlimit="10" x1="196" y1="140.4" x2="145" y2="89.4"/>
			</g>
			<g>
				<rect x="145" y="150.8" fill="#FFFFFF" stroke="#000000" stroke-miterlimit="10" width="51" height="14.3"/>
				<rect x="145" y="155" fill="none" width="51" height="6.7"/>
				<text transform="matrix(1 0 0 1 153.5073 160.6589)" font-family="'MyriadPro-Regular'" font-size="8">Username</text>
			</g>
		</g>
	</g>
	<g clip-path="url(#SVGID_2_)">
		<rect x="214.5" y="73.5" fill="none" width="87" height="106"/>
		<g>
			<g>
				<rect x="232.5" y="88.9" fill="#FFFFFF" stroke="#000000" stroke-miterlimit="10" width="51" height="51"/>
				<line fill="none" stroke="#000000" stroke-miterlimit="10" x1="232.5" y1="139.9" x2="283.5" y2="88.9"/>
				<line fill="none" stroke="#000000" stroke-miterlimit="10" x1="283.5" y1="139.9" x2="232.5" y2="88.9"/>
			</g>
			<g>
				<rect x="232.5" y="150.3" fill="#FFFFFF" stroke="#000000" stroke-miterlimit="10" width="51" height="14.3"/>
				<rect x="232.5" y="154.5" fill="none" width="51" height="6.7"/>
				<text transform="matrix(1 0 0 1 241.0282 160.1589)" font-family="'MyriadPro-Regular'" font-size="8">Username</text>
			</g>
		</g>
	</g>
	<g clip-path="url(#SVGID_2_)">
		<rect x="302" y="73.5" fill="none" width="87" height="106"/>
		<g>
			<g>
				<rect x="320" y="88.9" fill="#FFFFFF" stroke="#000000" stroke-miterlimit="10" width="51" height="51"/>
				<line fill="none" stroke="#000000" stroke-miterlimit="10" x1="320" y1="139.9" x2="371" y2="88.9"/>
				<line fill="none" stroke="#000000" stroke-miterlimit="10" x1="371" y1="139.9" x2="320" y2="88.9"/>
			</g>
			<g>
				<rect x="320" y="150.3" fill="#FFFFFF" stroke="#000000" stroke-miterlimit="10" width="51" height="14.3"/>
				<rect x="320" y="154.5" fill="none" width="51" height="6.7"/>
				<text transform="matrix(1 0 0 1 328.5073 160.1589)" font-family="'MyriadPro-Regular'" font-size="8">Username</text>
			</g>
		</g>
	</g>
	<g clip-path="url(#SVGID_2_)">
		<rect x="390" y="73.5" fill="none" width="87" height="106"/>
		<g>
			<g>
				<rect x="408" y="88.9" fill="#FFFFFF" stroke="#000000" stroke-miterlimit="10" width="51" height="51"/>
				<line fill="none" stroke="#000000" stroke-miterlimit="10" x1="408" y1="139.9" x2="459" y2="88.9"/>
				<line fill="none" stroke="#000000" stroke-miterlimit="10" x1="459" y1="139.9" x2="408" y2="88.9"/>
			</g>
			<g>
				<rect x="408" y="150.3" fill="#FFFFFF" stroke="#000000" stroke-miterlimit="10" width="51" height="14.3"/>
				<rect x="408" y="154.5" fill="none" width="51" height="6.7"/>
				<text transform="matrix(1 0 0 1 416.5073 160.1589)" font-family="'MyriadPro-Regular'" font-size="8">Username</text>
			</g>
		</g>
	</g>
	<g clip-path="url(#SVGID_2_)">
		<rect x="127" y="181" fill="none" width="87" height="106"/>
		<g>
			<g>
				<rect x="145" y="196.4" fill="#FFFFFF" stroke="#000000" stroke-miterlimit="10" width="51" height="51"/>
				<line fill="none" stroke="#000000" stroke-miterlimit="10" x1="145" y1="247.4" x2="196" y2="196.4"/>
				<line fill="none" stroke="#000000" stroke-miterlimit="10" x1="196" y1="247.4" x2="145" y2="196.4"/>
			</g>
			<g>
				<rect x="145" y="257.8" fill="#FFFFFF" stroke="#000000" stroke-miterlimit="10" width="51" height="14.3"/>
				<rect x="145" y="262" fill="none" width="51" height="6.7"/>
				<text transform="matrix(1 0 0 1 153.5073 267.6589)" font-family="'MyriadPro-Regular'" font-size="8">Username</text>
			</g>
		</g>
	</g>
	<g clip-path="url(#SVGID_2_)">
		<rect x="214.5" y="180.5" fill="none" width="87" height="106"/>
		<g>
			<g>
				<rect x="232.5" y="195.9" fill="#FFFFFF" stroke="#000000" stroke-miterlimit="10" width="51" height="51"/>
				<line fill="none" stroke="#000000" stroke-miterlimit="10" x1="232.5" y1="246.9" x2="283.5" y2="195.9"/>
				<line fill="none" stroke="#000000" stroke-miterlimit="10" x1="283.5" y1="246.9" x2="232.5" y2="195.9"/>
			</g>
			<g>
				<rect x="232.5" y="257.3" fill="#FFFFFF" stroke="#000000" stroke-miterlimit="10" width="51" height="14.3"/>
				<rect x="232.5" y="261.5" fill="none" width="51" height="6.7"/>
				<text transform="matrix(1 0 0 1 241.0282 267.1589)" font-family="'MyriadPro-Regular'" font-size="8">Username</text>
			</g>
		</g>
	</g>
	<g clip-path="url(#SVGID_2_)">
		<rect x="302" y="180.5" fill="none" width="87" height="106"/>
		<g>
			<g>
				<rect x="320" y="195.9" fill="#FFFFFF" stroke="#000000" stroke-miterlimit="10" width="51" height="51"/>
				<line fill="none" stroke="#000000" stroke-miterlimit="10" x1="320" y1="246.9" x2="371" y2="195.9"/>
				<line fill="none" stroke="#000000" stroke-miterlimit="10" x1="371" y1="246.9" x2="320" y2="195.9"/>
			</g>
			<g>
				<rect x="320" y="257.3" fill="#FFFFFF" stroke="#000000" stroke-miterlimit="10" width="51" height="14.3"/>
				<rect x="320" y="261.5" fill="none" width="51" height="6.7"/>
				<text transform="matrix(1 0 0 1 328.5073 267.1589)" font-family="'MyriadPro-Regular'" font-size="8">Username</text>
			</g>
		</g>
	</g>
	<g clip-path="url(#SVGID_2_)">
		<rect x="390" y="180.5" fill="none" width="87" height="106"/>
		<g>
			<g>
				<rect x="408" y="195.9" fill="#FFFFFF" stroke="#000000" stroke-miterlimit="10" width="51" height="51"/>
				<line fill="none" stroke="#000000" stroke-miterlimit="10" x1="408" y1="246.9" x2="459" y2="195.9"/>
				<line fill="none" stroke="#000000" stroke-miterlimit="10" x1="459" y1="246.9" x2="408" y2="195.9"/>
			</g>
			<g>
				<rect x="408" y="257.3" fill="#FFFFFF" stroke="#000000" stroke-miterlimit="10" width="51" height="14.3"/>
				<rect x="408" y="261.5" fill="none" width="51" height="6.7"/>
				<text transform="matrix(1 0 0 1 416.5073 267.1589)" font-family="'MyriadPro-Regular'" font-size="8">Username</text>
			</g>
		</g>
	</g>
	<g clip-path="url(#SVGID_2_)">
		<rect x="127" y="288" fill="none" width="87" height="106"/>
		<g>
			<g>
				<rect x="145" y="303.4" fill="#FFFFFF" stroke="#000000" stroke-miterlimit="10" width="51" height="51"/>
				<line fill="none" stroke="#000000" stroke-miterlimit="10" x1="145" y1="354.4" x2="196" y2="303.4"/>
				<line fill="none" stroke="#000000" stroke-miterlimit="10" x1="196" y1="354.4" x2="145" y2="303.4"/>
			</g>
			<g>
				<rect x="145" y="364.8" fill="#FFFFFF" stroke="#000000" stroke-miterlimit="10" width="51" height="14.3"/>
				<rect x="145" y="369" fill="none" width="51" height="6.7"/>
				<text transform="matrix(1 0 0 1 153.5073 374.6589)" font-family="'MyriadPro-Regular'" font-size="8">Username</text>
			</g>
		</g>
	</g>
	<g clip-path="url(#SVGID_2_)">
		<rect x="214.5" y="287.5" fill="none" width="87" height="106"/>
		<g>
			<g>
				<rect x="232.5" y="302.9" fill="#FFFFFF" stroke="#000000" stroke-miterlimit="10" width="51" height="51"/>
				<line fill="none" stroke="#000000" stroke-miterlimit="10" x1="232.5" y1="353.9" x2="283.5" y2="302.9"/>
				<line fill="none" stroke="#000000" stroke-miterlimit="10" x1="283.5" y1="353.9" x2="232.5" y2="302.9"/>
			</g>
			<g>
				<rect x="232.5" y="364.3" fill="#FFFFFF" stroke="#000000" stroke-miterlimit="10" width="51" height="14.3"/>
				<rect x="232.5" y="368.5" fill="none" width="51" height="6.7"/>
				<text transform="matrix(1 0 0 1 241.0282 374.1589)" font-family="'MyriadPro-Regular'" font-size="8">Username</text>
			</g>
		</g>
	</g>
	<g clip-path="url(#SVGID_2_)">
		<rect x="302" y="287.5" fill="none" width="87" height="106"/>
		<g>
			<g>
				<rect x="320" y="302.9" fill="#FFFFFF" stroke="#000000" stroke-miterlimit="10" width="51" height="51"/>
				<line fill="none" stroke="#000000" stroke-miterlimit="10" x1="320" y1="353.9" x2="371" y2="302.9"/>
				<line fill="none" stroke="#000000" stroke-miterlimit="10" x1="371" y1="353.9" x2="320" y2="302.9"/>
			</g>
			<g>
				<rect x="320" y="364.3" fill="#FFFFFF" stroke="#000000" stroke-miterlimit="10" width="51" height="14.3"/>
				<rect x="320" y="368.5" fill="none" width="51" height="6.7"/>
				<text transform="matrix(1 0 0 1 328.5073 374.1589)" font-family="'MyriadPro-Regular'" font-size="8">Username</text>
			</g>
		</g>
	</g>
	<g clip-path="url(#SVGID_2_)">
		<rect x="390" y="287.5" fill="none" width="87" height="106"/>
		<g>
			<g>
				<rect x="408" y="302.9" fill="#FFFFFF" stroke="#000000" stroke-miterlimit="10" width="51" height="51"/>
				<line fill="none" stroke="#000000" stroke-miterlimit="10" x1="408" y1="353.9" x2="459" y2="302.9"/>
				<line fill="none" stroke="#000000" stroke-miterlimit="10" x1="459" y1="353.9" x2="408" y2="302.9"/>
			</g>
			<g>
				<rect x="408" y="364.3" fill="#FFFFFF" stroke="#000000" stroke-miterlimit="10" width="51" height="14.3"/>
				<rect x="408" y="368.5" fill="none" width="51" height="6.7"/>
				<text transform="matrix(1 0 0 1 416.5073 374.1589)" font-family="'MyriadPro-Regular'" font-size="8">Username</text>
			</g>
		</g>
	</g>
	<g clip-path="url(#SVGID_2_)">
		<rect x="127" y="395" fill="none" width="87" height="106"/>
		<g>
			<g>
				<rect x="145" y="410.4" fill="#FFFFFF" stroke="#000000" stroke-miterlimit="10" width="51" height="51"/>
				<line fill="none" stroke="#000000" stroke-miterlimit="10" x1="145" y1="461.4" x2="196" y2="410.4"/>
				<line fill="none" stroke="#000000" stroke-miterlimit="10" x1="196" y1="461.4" x2="145" y2="410.4"/>
			</g>
			<g>
				<rect x="145" y="471.8" fill="#FFFFFF" stroke="#000000" stroke-miterlimit="10" width="51" height="14.3"/>
				<rect x="145" y="476" fill="none" width="51" height="6.7"/>
				<text transform="matrix(1 0 0 1 153.5073 481.6588)" font-family="'MyriadPro-Regular'" font-size="8">Username</text>
			</g>
		</g>
	</g>
	<g clip-path="url(#SVGID_2_)">
		<rect x="214.5" y="394.5" fill="none" width="87" height="106"/>
		<g>
			<g>
				<rect x="232.5" y="409.9" fill="#FFFFFF" stroke="#000000" stroke-miterlimit="10" width="51" height="51"/>
				<line fill="none" stroke="#000000" stroke-miterlimit="10" x1="232.5" y1="460.9" x2="283.5" y2="409.9"/>
				<line fill="none" stroke="#000000" stroke-miterlimit="10" x1="283.5" y1="460.9" x2="232.5" y2="409.9"/>
			</g>
			<g>
				<rect x="232.5" y="471.3" fill="#FFFFFF" stroke="#000000" stroke-miterlimit="10" width="51" height="14.3"/>
				<rect x="232.5" y="475.5" fill="none" width="51" height="6.7"/>
				<text transform="matrix(1 0 0 1 241.0282 481.1589)" font-family="'MyriadPro-Regular'" font-size="8">Username</text>
			</g>
		</g>
	</g>
	<g clip-path="url(#SVGID_2_)">
		<rect x="302" y="394.5" fill="none" width="87" height="106"/>
		<g>
			<g>
				<rect x="320" y="409.9" fill="#FFFFFF" stroke="#000000" stroke-miterlimit="10" width="51" height="51"/>
				<line fill="none" stroke="#000000" stroke-miterlimit="10" x1="320" y1="460.9" x2="371" y2="409.9"/>
				<line fill="none" stroke="#000000" stroke-miterlimit="10" x1="371" y1="460.9" x2="320" y2="409.9"/>
			</g>
			<g>
				<rect x="320" y="471.3" fill="#FFFFFF" stroke="#000000" stroke-miterlimit="10" width="51" height="14.3"/>
				<rect x="320" y="475.5" fill="none" width="51" height="6.7"/>
				<text transform="matrix(1 0 0 1 328.5073 481.1589)" font-family="'MyriadPro-Regular'" font-size="8">Username</text>
			</g>
		</g>
	</g>
	<g clip-path="url(#SVGID_2_)">
		<rect x="390" y="394.5" fill="none" width="87" height="106"/>
		<g>
			<g>
				<rect x="408" y="409.9" fill="#FFFFFF" stroke="#000000" stroke-miterlimit="10" width="51" height="51"/>
				<line fill="none" stroke="#000000" stroke-miterlimit="10" x1="408" y1="460.9" x2="459" y2="409.9"/>
				<line fill="none" stroke="#000000" stroke-miterlimit="10" x1="459" y1="460.9" x2="408" y2="409.9"/>
			</g>
			<g>
				<rect x="408" y="471.3" fill="#FFFFFF" stroke="#000000" stroke-miterlimit="10" width="51" height="14.3"/>
				<rect x="408" y="475.5" fill="none" width="51" height="6.7"/>
				<text transform="matrix(1 0 0 1 416.5073 481.1588)" font-family="'MyriadPro-Regular'" font-size="8">Username</text>
			</g>
		</g>
	</g>
	<g clip-path="url(#SVGID_2_)">
		<rect x="127" y="503" fill="none" width="87" height="106"/>
		<g>
			<g>
				<rect x="145" y="518.4" fill="#FFFFFF" stroke="#000000" stroke-miterlimit="10" width="51" height="51"/>
				<line fill="none" stroke="#000000" stroke-miterlimit="10" x1="145" y1="569.4" x2="196" y2="518.4"/>
				<line fill="none" stroke="#000000" stroke-miterlimit="10" x1="196" y1="569.4" x2="145" y2="518.4"/>
			</g>
			<g>
				<rect x="145" y="579.8" fill="#FFFFFF" stroke="#000000" stroke-miterlimit="10" width="51" height="14.3"/>
				<rect x="145" y="584" fill="none" width="51" height="6.7"/>
				<text transform="matrix(1 0 0 1 153.5073 589.6588)" font-family="'MyriadPro-Regular'" font-size="8">Username</text>
			</g>
		</g>
	</g>
	<g clip-path="url(#SVGID_2_)">
		<rect x="214.5" y="502.5" fill="none" width="87" height="106"/>
		<g>
			<g>
				<rect x="232.5" y="517.9" fill="#FFFFFF" stroke="#000000" stroke-miterlimit="10" width="51" height="51"/>
				<line fill="none" stroke="#000000" stroke-miterlimit="10" x1="232.5" y1="568.9" x2="283.5" y2="517.9"/>
				<line fill="none" stroke="#000000" stroke-miterlimit="10" x1="283.5" y1="568.9" x2="232.5" y2="517.9"/>
			</g>
			<g>
				<rect x="232.5" y="579.3" fill="#FFFFFF" stroke="#000000" stroke-miterlimit="10" width="51" height="14.3"/>
				<rect x="232.5" y="583.5" fill="none" width="51" height="6.7"/>
				<text transform="matrix(1 0 0 1 241.0282 589.1589)" font-family="'MyriadPro-Regular'" font-size="8">Username</text>
			</g>
		</g>
	</g>
	<g clip-path="url(#SVGID_2_)">
		<rect x="302" y="502.5" fill="none" width="87" height="106"/>
		<g>
			<g>
				<rect x="320" y="517.9" fill="#FFFFFF" stroke="#000000" stroke-miterlimit="10" width="51" height="51"/>
				<line fill="none" stroke="#000000" stroke-miterlimit="10" x1="320" y1="568.9" x2="371" y2="517.9"/>
				<line fill="none" stroke="#000000" stroke-miterlimit="10" x1="371" y1="568.9" x2="320" y2="517.9"/>
			</g>
			<g>
				<rect x="320" y="579.3" fill="#FFFFFF" stroke="#000000" stroke-miterlimit="10" width="51" height="14.3"/>
				<rect x="320" y="583.5" fill="none" width="51" height="6.7"/>
				<text transform="matrix(1 0 0 1 328.5073 589.1589)" font-family="'MyriadPro-Regular'" font-size="8">Username</text>
			</g>
		</g>
	</g>
	<g clip-path="url(#SVGID_2_)">
		<rect x="390" y="502.5" fill="none" width="87" height="106"/>
		<g>
			<g>
				<rect x="408" y="517.9" fill="#FFFFFF" stroke="#000000" stroke-miterlimit="10" width="51" height="51"/>
				<line fill="none" stroke="#000000" stroke-miterlimit="10" x1="408" y1="568.9" x2="459" y2="517.9"/>
				<line fill="none" stroke="#000000" stroke-miterlimit="10" x1="459" y1="568.9" x2="408" y2="517.9"/>
			</g>
			<g>
				<rect x="408" y="579.3" fill="#FFFFFF" stroke="#000000" stroke-miterlimit="10" width="51" height="14.3"/>
				<rect x="408" y="583.5" fill="none" width="51" height="6.7"/>
				<text transform="matrix(1 0 0 1 416.5073 589.1588)" font-family="'MyriadPro-Regular'" font-size="8">Username</text>
			</g>
		</g>
	</g>
</g>
</svg>
