<?xml version="1.0" encoding="utf-8"?>
<!-- Generator: Adobe Illustrator 18.1.1, SVG Export Plug-In . SVG Version: 6.00 Build 0)  -->
<svg version="1.1" id="Layer_1" xmlns="http://www.w3.org/2000/svg" xmlns:xlink="http://www.w3.org/1999/xlink" x="0px" y="0px"
	 viewBox="0 0 960 560" enable-background="new 0 0 960 560" xml:space="preserve">
<rect fill="#FFFFFF" stroke="#000000" stroke-miterlimit="10" width="960" height="560"/>
<rect fill="#E6E6E6" stroke="#B3B3B3" stroke-miterlimit="10" width="960" height="48.5"/>
<rect y="541.7" fill="#E6E6E6" stroke="#B3B3B3" stroke-miterlimit="10" width="960" height="18.3"/>
<rect x="17.3" y="9.3" fill="#FFFFFF" stroke="#000000" stroke-miterlimit="10" width="78" height="29.7"/>
<rect x="25" y="18.5" fill="none" width="62" height="19"/>
<text transform="matrix(1 0 0 1 32.6006 27.02)" font-family="'MyriadPro-Regular'" font-size="12">Site Logo</text>
<rect x="173" y="15.5" fill="#FFFFFF" stroke="#000000" stroke-miterlimit="10" width="234" height="19"/>
<g>
	<circle fill="#FFFFFF" stroke="#000000" stroke-width="2" stroke-miterlimit="10" cx="392.6" cy="22.9" r="3.6"/>
	<line fill="none" stroke="#000000" stroke-width="2" stroke-miterlimit="10" x1="401.7" y1="31.8" x2="394.6" y2="24.8"/>
</g>
<rect x="177.3" y="20" fill="none" width="130" height="10"/>
<text transform="matrix(1 0 0 1 177.3335 28.52)" font-family="'MyriadPro-Regular'" font-size="12">Search for event</text>
<rect x="899.7" y="15.5" fill="#FFFFFF" stroke="#000000" stroke-miterlimit="10" width="43.3" height="19"/>
<rect x="903.3" y="20.1" fill="none" width="46" height="16.3"/>
<text transform="matrix(1 0 0 1 903.3336 28.6513)" font-family="'MyriadPro-Regular'" font-size="12">Logout</text>
<rect y="48.5" fill="#CCCCCC" stroke="#999999" stroke-miterlimit="10" width="127" height="493.2"/>
<g>
	<rect x="17.3" y="68" fill="#FFFFFF" stroke="#000000" stroke-miterlimit="10" width="16" height="16"/>
	<line fill="none" stroke="#000000" stroke-miterlimit="10" x1="17.3" y1="84" x2="33.3" y2="68"/>
	<line fill="none" stroke="#000000" stroke-miterlimit="10" x1="32.8" y1="83.5" x2="17.3" y2="68"/>
</g>
<rect x="41.7" y="72" fill="none" width="72" height="13.7"/>
<text transform="matrix(1 0 0 1 41.6665 80.52)" font-family="'MyriadPro-Regular'" font-size="12">Circles</text>
<g>
	<rect x="17.3" y="271" fill="#FFFFFF" stroke="#000000" stroke-miterlimit="10" width="16" height="16"/>
	<line fill="none" stroke="#000000" stroke-miterlimit="10" x1="17.3" y1="287" x2="33.3" y2="271"/>
	<line fill="none" stroke="#000000" stroke-miterlimit="10" x1="32.8" y1="286.5" x2="17.3" y2="271"/>
</g>
<rect x="41.7" y="275" fill="none" width="72" height="13.7"/>
<text transform="matrix(1 0 0 1 41.6665 283.52)" font-family="'MyriadPro-Regular'" font-size="12">Next 24h</text>
<rect x="19.2" y="62.8" fill="none" width="12.7" height="4"/>
<text transform="matrix(1 0 0 1 19.1665 66.3206)" font-family="'MyriadPro-Regular'" font-size="5">ICON</text>
<rect x="19" y="266" fill="none" width="12.7" height="4"/>
<text transform="matrix(1 0 0 1 18.9998 269.5498)" font-family="'MyriadPro-Regular'" font-size="5">ICON</text>
<rect x="11.7" y="90.2" fill="#FFFFFF" stroke="#000000" stroke-miterlimit="10" width="108.3" height="164.2"/>
<g>
	<rect x="17.3" y="96" fill="#E6E6E6" stroke="#999999" stroke-miterlimit="10" width="96.3" height="32.7"/>
	<rect x="46.5" y="107" fill="none" width="38.3" height="11.3"/>
	<text transform="matrix(1 0 0 1 46.5 115.52)" font-family="'MyriadPro-Regular'" font-size="12">Circle X</text>
</g>
<g>
	<rect x="17.3" y="133.6" fill="#E6E6E6" stroke="#999999" stroke-miterlimit="10" width="96.3" height="32.7"/>
	<rect x="46.5" y="144.6" fill="none" width="38.3" height="11.3"/>
	<text transform="matrix(1 0 0 1 46.5 153.0825)" font-family="'MyriadPro-Regular'" font-size="12">Circle Y</text>
</g>
<g>
	<rect x="17.3" y="170.2" fill="#E6E6E6" stroke="#999999" stroke-miterlimit="10" width="96.3" height="32.7"/>
	<rect x="46.5" y="181.2" fill="none" width="38.3" height="11.3"/>
	<text transform="matrix(1 0 0 1 46.5 189.6867)" font-family="'MyriadPro-Regular'" font-size="12">Circle Z</text>
</g>
<g>
	<rect x="17.3" y="207.2" fill="#E6E6E6" stroke="#999999" stroke-miterlimit="10" width="96.3" height="32.7"/>
	<rect x="46.5" y="218.2" fill="none" width="40.3" height="11.3"/>
	<text transform="matrix(1 0 0 1 46.5 226.7284)" font-family="'MyriadPro-Regular'" font-size="12">Circle </text>
</g>
<rect x="11.7" y="294.9" fill="#FFFFFF" stroke="#000000" stroke-miterlimit="10" width="108.3" height="236.1"/>
<g>
	<rect x="17.3" y="299.9" fill="#E6E6E6" stroke="#999999" stroke-miterlimit="10" width="96.3" height="32.7"/>
	<rect x="46.5" y="310.9" fill="none" width="38.3" height="11.3"/>
	<text transform="matrix(1 0 0 1 46.5 319.395)" font-family="'MyriadPro-Regular'" font-size="12">Event 1</text>
</g>
<g>
	<rect x="17.3" y="337.4" fill="#E6E6E6" stroke="#999999" stroke-miterlimit="10" width="96.3" height="32.7"/>
	<rect x="46.5" y="348.4" fill="none" width="38.3" height="11.3"/>
	<text transform="matrix(1 0 0 1 46.5 356.9575)" font-family="'MyriadPro-Regular'" font-size="12">Event 2</text>
</g>
<g>
	<rect x="17.3" y="374" fill="#E6E6E6" stroke="#999999" stroke-miterlimit="10" width="96.3" height="32.7"/>
	<rect x="46.5" y="385" fill="none" width="38.3" height="11.3"/>
	<text transform="matrix(1 0 0 1 46.5 393.5622)" font-family="'MyriadPro-Regular'" font-size="12">Event 3</text>
</g>
<g>
	<rect x="17.3" y="411.1" fill="#E6E6E6" stroke="#999999" stroke-miterlimit="10" width="96.3" height="32.7"/>
	<rect x="46.5" y="422.1" fill="none" width="40.3" height="11.3"/>
	<text transform="matrix(1 0 0 1 46.5 430.6029)" font-family="'MyriadPro-Regular'" font-size="12">Event 4</text>
</g>
<g>
	<defs>
		<rect id="SVGID_1_" x="11.7" y="91" width="108.3" height="163"/>
	</defs>
	<clipPath id="SVGID_2_">
		<use xlink:href="#SVGID_1_"  overflow="visible"/>
	</clipPath>
	<g clip-path="url(#SVGID_2_)">
		<rect x="17.3" y="244.2" fill="#E6E6E6" stroke="#999999" stroke-miterlimit="10" width="96.3" height="32.7"/>
		<rect x="46.5" y="255.2" fill="none" width="40.3" height="11.3"/>
		<text transform="matrix(1 0 0 1 46.5 263.7283)" font-family="'MyriadPro-Regular'" font-size="12">Circle </text>
	</g>
</g>
<g>
	<rect x="17.3" y="448.1" fill="#E6E6E6" stroke="#999999" stroke-miterlimit="10" width="96.3" height="32.7"/>
	<rect x="46.5" y="459.1" fill="none" width="40.3" height="11.3"/>
	<text transform="matrix(1 0 0 1 46.5 467.6029)" font-family="'MyriadPro-Regular'" font-size="12">Event 5</text>
</g>
<rect x="127" y="48.5" fill="#B3B3B3" stroke="#999999" stroke-miterlimit="10" width="833" height="23.5"/>
<rect x="126.5" y="72.5" fill="none" width="119" height="469"/>
<rect x="245.5" y="72.5" fill="#FFFFFF" stroke="#B3B3B3" stroke-miterlimit="10" width="119" height="469"/>
<rect x="364.5" y="72.5" fill="#FFFFFF" stroke="#B3B3B3" stroke-miterlimit="10" width="119" height="469"/>
<rect x="483.5" y="72.5" fill="#FFFFFF" stroke="#B3B3B3" stroke-miterlimit="10" width="119" height="469"/>
<rect x="602.5" y="72.5" fill="#FFFFFF" stroke="#B3B3B3" stroke-miterlimit="10" width="119" height="469"/>
<rect x="721.5" y="72.5" fill="#FFFFFF" stroke="#B3B3B3" stroke-miterlimit="10" width="119" height="469"/>
<rect x="840.5" y="72.5" fill="#FFFFFF" stroke="#B3B3B3" stroke-miterlimit="10" width="119" height="469"/>
<rect x="127" y="91.8" fill="none" width="26.3" height="8.5"/>
<text transform="matrix(1 0 0 1 127 98.8501)" fill="#999999" font-family="'MyriadPro-Regular'" font-size="10">- 7 am</text>
<g>
	<rect x="127" y="110.7" fill="#E6E6E6" stroke="#999999" stroke-miterlimit="10" width="118.5" height="32.7"/>
	<rect x="167.3" y="121.7" fill="none" width="38.3" height="11.3"/>
	<text transform="matrix(1 0 0 1 167.25 130.1867)" font-family="'MyriadPro-Regular'" font-size="12">Event 1</text>
</g>
<rect x="127" y="118.3" fill="none" width="26.3" height="8.5"/>
<text transform="matrix(1 0 0 1 127 125.4334)" fill="#999999" font-family="'MyriadPro-Regular'" font-size="10">- 8 am</text>
<g>
	<rect x="127.3" y="237.7" fill="#E6E6E6" stroke="#999999" stroke-miterlimit="10" width="118.5" height="32.7"/>
	<rect x="167.5" y="248.7" fill="none" width="38.3" height="11.3"/>
	<text transform="matrix(1 0 0 1 167.5 257.1867)" font-family="'MyriadPro-Regular'" font-size="12">Event 2</text>
</g>
<rect x="127" y="146" fill="none" width="26.3" height="8.5"/>
<text transform="matrix(1 0 0 1 127 153.0793)" fill="#999999" font-family="'MyriadPro-Regular'" font-size="10">- 9 am</text>
<text transform="matrix(1 0 0 1 133.25 176)" fill="#B3B3B3" font-family="'MyriadPro-Regular'" font-size="10">...</text>
<rect x="565" y="56.3" fill="none" width="38" height="19"/>
<text transform="matrix(1 0 0 1 565 63.3709)" font-family="'MyriadPro-Regular'" font-size="10">Show:</text>
<rect x="604.5" y="52.5" fill="#E6E6E6" stroke="#CCCCCC" stroke-miterlimit="10" width="47" height="16"/>
<rect x="651.5" y="52.5" fill="#CCCCCC" stroke="#CCCCCC" stroke-miterlimit="10" width="47" height="16"/>
<rect x="698.5" y="52.5" fill="#E6E6E6" stroke="#CCCCCC" stroke-miterlimit="10" width="47" height="16"/>
<rect x="745.5" y="52.5" fill="#E6E6E6" stroke="#CCCCCC" stroke-miterlimit="10" width="48" height="16"/>
<rect x="604.5" y="56.5" fill="none" width="47" height="8"/>
<text transform="matrix(1 0 0 1 619.905 63.6003)" font-family="'MyriadPro-Regular'" font-size="10">Day</text>
<rect x="651.5" y="56.5" fill="none" width="47" height="8"/>
<text transform="matrix(1 0 0 1 663.4147 63.6003)" font-family="'MyriadPro-Regular'" font-size="10">Week</text>
<rect x="698.5" y="56.3" fill="none" width="47" height="8"/>
<text transform="matrix(1 0 0 1 708.03 63.3503)" font-family="'MyriadPro-Regular'" font-size="10">Month</text>
<rect x="746" y="56.3" fill="none" width="47" height="8"/>
<text transform="matrix(1 0 0 1 753.1345 63.3503)" font-family="'MyriadPro-Regular'" font-size="10">Agenda</text>
<g>
	<rect x="236" y="114" fill="none" width="6.1" height="6.1"/>
	<line fill="none" stroke="#666666" stroke-miterlimit="10" x1="236" y1="120.1" x2="242.1" y2="114"/>
	<line fill="none" stroke="#666666" stroke-miterlimit="10" x1="241.9" y1="119.9" x2="236" y2="114"/>
</g>
<g>
	<rect x="236" y="241" fill="none" width="6.1" height="6.1"/>
	<line fill="none" stroke="#666666" stroke-miterlimit="10" x1="236" y1="247.1" x2="242.1" y2="241"/>
	<line fill="none" stroke="#666666" stroke-miterlimit="10" x1="241.9" y1="246.9" x2="236" y2="241"/>
</g>
<rect x="140.1" y="52.5" fill="#E6E6E6" stroke="#999999" stroke-miterlimit="10" width="45.9" height="16"/>
<rect x="140.1" y="56.6" fill="none" width="45.9" height="7.4"/>
<text transform="matrix(1 0 0 1 149.4526 63.673)" font-family="'MyriadPro-Regular'" font-size="10">Create</text>
<text transform="matrix(1 0 0 1 18.9872 554.6664)" fill="#808080" font-family="'MyriadPro-Regular'" font-size="10">Home</text>
</svg>
