<?xml version="1.0" encoding="utf-8"?>
<!-- Generator: Adobe Illustrator 18.1.1, SVG Export Plug-In . SVG Version: 6.00 Build 0)  -->
<svg version="1.1" id="Layer_1" xmlns="http://www.w3.org/2000/svg" xmlns:xlink="http://www.w3.org/1999/xlink" x="0px" y="0px"
	 viewBox="0 0 350 560" enable-background="new 0 0 350 560" xml:space="preserve">
<rect fill="#FFFFFF" width="350" height="558.8"/>
<g>
	<rect x="-0.4" y="23.7" fill="#CCCCCC" stroke="#999999" stroke-miterlimit="10" width="351.6" height="67"/>
	<rect x="-0.4" y="51.4" fill="none" width="350.1" height="25.5"/>
	<text transform="matrix(1 0 0 1 153.0928 61.354)" font-family="'MyriadPro-Regular'" font-size="14">Event 0</text>
</g>
<rect fill="#E6E6E6" stroke="#B3B3B3" stroke-miterlimit="10" width="351.6" height="48.5"/>
<rect x="17.3" y="9.3" fill="#FFFFFF" stroke="#000000" stroke-miterlimit="10" width="78" height="29.7"/>
<rect x="25" y="18.5" fill="none" width="62" height="19"/>
<text transform="matrix(1 0 0 1 32.6006 27.02)" font-family="'MyriadPro-Regular'" font-size="12">Site Logo</text>
<g>
	<rect y="473.1" fill="#CCCCCC" stroke="#999999" stroke-miterlimit="10" width="351.6" height="67"/>
	<rect y="500.8" fill="none" width="350.1" height="25.5"/>
	<text transform="matrix(1 0 0 1 153.4678 510.7733)" font-family="'MyriadPro-Regular'" font-size="14">Event 4</text>
</g>
<g>
	<rect x="259" y="9.3" fill="#FFFFFF" stroke="#000000" stroke-miterlimit="10" width="31.2" height="31.2"/>
	<line fill="none" stroke="#000000" stroke-miterlimit="10" x1="259" y1="40.5" x2="290.2" y2="9.3"/>
	<line fill="none" stroke="#000000" stroke-miterlimit="10" x1="290.2" y1="40.5" x2="259" y2="9.3"/>
</g>
<rect x="262.2" y="2.8" fill="none" width="24.7" height="7.7"/>
<text transform="matrix(1 0 0 1 263.4014 7.0929)" font-family="'MyriadPro-Regular'" font-size="6">Calendar</text>
<g>
	<rect y="89.5" fill="#CCCCCC" stroke="#999999" stroke-miterlimit="10" width="351.6" height="67"/>
	<rect y="117.3" fill="none" width="350.1" height="25.5"/>
	<text transform="matrix(1 0 0 1 153.4678 127.1899)" font-family="'MyriadPro-Regular'" font-size="14">Event 1</text>
</g>
<path fill="#E6E6E6" stroke="#999999" stroke-miterlimit="10" d="M275.3,43.9l-8.5,12.6h-2.3H118c-10.1,0-18.5,9-18.5,19.1v89.8
	c0,10.1,8.4,19.1,18.5,19.1h166.6c10.1,0,18.9-9,18.9-19.1V75.6c0-10.1-8.5-18.5-18.6-18.5L275.3,43.9z"/>
<rect x="121.5" y="69.5" fill="#FFFFFF" stroke="#CCCCCC" stroke-miterlimit="10" width="23" height="20"/>
<rect x="144.5" y="69.5" fill="#FFFFFF" stroke="#CCCCCC" stroke-miterlimit="10" width="23" height="20"/>
<rect x="167.5" y="69.5" fill="#FFFFFF" stroke="#CCCCCC" stroke-miterlimit="10" width="23" height="20"/>
<rect x="190.5" y="69.5" fill="#FFFFFF" stroke="#CCCCCC" stroke-miterlimit="10" width="23" height="20"/>
<rect x="213.5" y="69.5" fill="#FFFFFF" stroke="#CCCCCC" stroke-miterlimit="10" width="23" height="20"/>
<rect x="236.5" y="69.5" fill="#FFFFFF" stroke="#CCCCCC" stroke-miterlimit="10" width="23" height="20"/>
<rect x="259.5" y="69.5" fill="#FFFFFF" stroke="#CCCCCC" stroke-miterlimit="10" width="23" height="20"/>
<rect x="121.5" y="89.5" fill="#FFFFFF" stroke="#CCCCCC" stroke-miterlimit="10" width="23" height="20"/>
<rect x="144.5" y="89.5" fill="#FFFFFF" stroke="#CCCCCC" stroke-miterlimit="10" width="23" height="20"/>
<rect x="167.5" y="89.5" fill="#FFFFFF" stroke="#CCCCCC" stroke-miterlimit="10" width="23" height="20"/>
<rect x="190.5" y="89.5" fill="#FFFFFF" stroke="#CCCCCC" stroke-miterlimit="10" width="23" height="20"/>
<rect x="213.5" y="89.5" fill="#FFFFFF" stroke="#CCCCCC" stroke-miterlimit="10" width="23" height="20"/>
<rect x="236.5" y="89.5" fill="#FFFFFF" stroke="#CCCCCC" stroke-miterlimit="10" width="23" height="20"/>
<rect x="259.5" y="89.5" fill="#FFFFFF" stroke="#CCCCCC" stroke-miterlimit="10" width="23" height="20"/>
<rect x="121.5" y="109.5" fill="#FFFFFF" stroke="#CCCCCC" stroke-miterlimit="10" width="23" height="21"/>
<rect x="144.5" y="109.5" fill="#FFFFFF" stroke="#CCCCCC" stroke-miterlimit="10" width="23" height="21"/>
<rect x="167.5" y="109.5" fill="#FFFFFF" stroke="#CCCCCC" stroke-miterlimit="10" width="23" height="21"/>
<rect x="190.5" y="109.5" fill="#FFFFFF" stroke="#CCCCCC" stroke-miterlimit="10" width="23" height="21"/>
<rect x="213.5" y="109.5" fill="#FFFFFF" stroke="#CCCCCC" stroke-miterlimit="10" width="23" height="21"/>
<rect x="236.5" y="109.5" fill="#FFFFFF" stroke="#CCCCCC" stroke-miterlimit="10" width="23" height="21"/>
<rect x="259.5" y="109.5" fill="#FFFFFF" stroke="#CCCCCC" stroke-miterlimit="10" width="23" height="21"/>
<rect x="121.5" y="130.5" fill="#FFFFFF" stroke="#CCCCCC" stroke-miterlimit="10" width="23" height="20"/>
<rect x="144.5" y="130.5" fill="#FFFFFF" stroke="#CCCCCC" stroke-miterlimit="10" width="23" height="20"/>
<rect x="167.5" y="130.5" fill="#FFFFFF" stroke="#CCCCCC" stroke-miterlimit="10" width="23" height="20"/>
<rect x="190.5" y="130.5" fill="#FFFFFF" stroke="#CCCCCC" stroke-miterlimit="10" width="23" height="20"/>
<rect x="213.5" y="130.5" fill="#FFFFFF" stroke="#CCCCCC" stroke-miterlimit="10" width="23" height="20"/>
<rect x="236.5" y="130.5" fill="#FFFFFF" stroke="#CCCCCC" stroke-miterlimit="10" width="23" height="20"/>
<rect x="259.5" y="130.5" fill="#FFFFFF" stroke="#CCCCCC" stroke-miterlimit="10" width="23" height="20"/>
<rect x="121.5" y="150.5" fill="#FFFFFF" stroke="#CCCCCC" stroke-miterlimit="10" width="23" height="21"/>
<g>
	<defs>
		<rect id="SVGID_1_" width="350" height="558.8"/>
	</defs>
	<clipPath id="SVGID_2_">
		<use xlink:href="#SVGID_1_"  overflow="visible"/>
	</clipPath>
	<g clip-path="url(#SVGID_2_)">
		<rect y="540.1" fill="#CCCCCC" stroke="#999999" stroke-miterlimit="10" width="351.6" height="66.9"/>
		<rect y="567.8" fill="none" width="350.1" height="25.4"/>
		<text transform="matrix(1.0021 0 0 1 153.4678 577.7324)" font-family="'MyriadPro-Regular'" font-size="13.9707">Event 5</text>
	</g>
</g>
<rect x="144.5" y="150.5" fill="#FFFFFF" stroke="#CCCCCC" stroke-miterlimit="10" width="23" height="21"/>
<rect x="167.5" y="150.5" fill="#FFFFFF" stroke="#CCCCCC" stroke-miterlimit="10" width="23" height="21"/>
<rect x="190.5" y="150.5" fill="#FFFFFF" stroke="#CCCCCC" stroke-miterlimit="10" width="23" height="21"/>
<rect x="213.5" y="150.5" fill="#FFFFFF" stroke="#CCCCCC" stroke-miterlimit="10" width="23" height="21"/>
<rect x="236.5" y="150.5" fill="#FFFFFF" stroke="#CCCCCC" stroke-miterlimit="10" width="23" height="21"/>
<rect x="259.5" y="150.5" fill="#FFFFFF" stroke="#CCCCCC" stroke-miterlimit="10" width="23" height="21"/>
<text transform="matrix(1 0 0 1 129.4092 84.5)" font-family="'MyriadPro-Regular'" font-size="14">1</text>
<text transform="matrix(1 0 0 1 152.4092 84.5)" font-family="'MyriadPro-Regular'" font-size="14">2</text>
<text transform="matrix(1 0 0 1 174.6533 84.5)" font-family="'MyriadPro-Regular'" font-size="14">...</text>
<g>
	<rect x="-0.8" y="248.8" fill="#CCCCCC" stroke="#999999" stroke-miterlimit="10" width="351.6" height="67"/>
	<rect x="-0.8" y="276.5" fill="none" width="350.1" height="25.5"/>
	<text transform="matrix(1 0 0 1 152.7178 286.4399)" font-family="'MyriadPro-Regular'" font-size="14">Event 2</text>
</g>
<g>
	<rect x="-0.8" y="315.8" fill="#CCCCCC" stroke="#999999" stroke-miterlimit="10" width="351.6" height="67"/>
	<rect x="-0.8" y="343.5" fill="none" width="350.1" height="25.5"/>
	<text transform="matrix(1 0 0 1 152.7178 353.4399)" font-family="'MyriadPro-Regular'" font-size="14">Event 3</text>
</g>
<g>
	<rect x="-0.8" y="201" fill="#E6E6E6" stroke="#B3B3B3" stroke-miterlimit="10" width="352.4" height="47.8"/>
	<rect y="218.5" fill="none" width="350.9" height="12.7"/>
	<text transform="matrix(1 0 0 1 158.6235 228.4816)" font-family="'MyriadPro-Regular'" font-size="14">Day X</text>
</g>
<g>
	<rect x="-1.2" y="425.3" fill="#E6E6E6" stroke="#B3B3B3" stroke-miterlimit="10" width="352.4" height="47.8"/>
	<rect x="-0.4" y="442.9" fill="none" width="350.9" height="12.7"/>
	<text transform="matrix(1 0 0 1 158.3965 452.8149)" font-family="'MyriadPro-Regular'" font-size="14">Day Y</text>
</g>
<g>
	<rect x="208" y="9.3" fill="#FFFFFF" stroke="#000000" stroke-miterlimit="10" width="31.2" height="31.2"/>
	<line fill="none" stroke="#000000" stroke-miterlimit="10" x1="208" y1="40.5" x2="239.2" y2="9.3"/>
	<line fill="none" stroke="#000000" stroke-miterlimit="10" x1="239.2" y1="40.5" x2="208" y2="9.3"/>
</g>
<rect x="211.2" y="2.8" fill="none" width="24.7" height="7.7"/>
<text transform="matrix(1 0 0 1 215.416 7.0929)" font-family="'MyriadPro-Regular'" font-size="6">Circles</text>
<g>
	<circle fill="#FFFFFF" stroke="#000000" stroke-miterlimit="10" cx="308.7" cy="515" r="26.7"/>
	<line fill="none" stroke="#000000" stroke-miterlimit="10" x1="290.2" y1="534.2" x2="327.6" y2="496.7"/>
	<line fill="none" stroke="#000000" stroke-miterlimit="10" x1="289.5" y1="496" x2="327.6" y2="534.2"/>
</g>
<rect x="297.5" y="494.6" fill="none" width="22.2" height="6.2"/>
<text transform="matrix(1 0 0 1 297.4655 500.3294)" font-family="'MyriadPro-Regular'" font-size="8">Create</text>
</svg>
