<?xml version="1.0" encoding="utf-8"?>
<!-- Generator: Adobe Illustrator 18.1.1, SVG Export Plug-In . SVG Version: 6.00 Build 0)  -->
<svg version="1.1" id="Layer_1" xmlns="http://www.w3.org/2000/svg" xmlns:xlink="http://www.w3.org/1999/xlink" x="0px" y="0px"
	 viewBox="0 0 960 560" enable-background="new 0 0 960 560" xml:space="preserve">
<rect fill="#E6E6E6" stroke="#B3B3B3" stroke-miterlimit="10" width="960" height="48.5"/>
<rect y="541.7" fill="#E6E6E6" stroke="#B3B3B3" stroke-miterlimit="10" width="960" height="18.3"/>
<rect x="17.3" y="9.3" fill="#FFFFFF" stroke="#000000" stroke-miterlimit="10" width="78" height="29.7"/>
<rect x="25" y="18.5" fill="none" width="62" height="19"/>
<text transform="matrix(1 0 0 1 32.6006 27.02)" font-family="'MyriadPro-Regular'" font-size="12">Site Logo</text>
<rect x="899.7" y="15.5" fill="#FFFFFF" stroke="#000000" stroke-miterlimit="10" width="43.3" height="19"/>
<rect x="907.3" y="20.1" fill="none" width="46" height="16.3"/>
<text transform="matrix(1 0 0 1 907.3336 28.6513)" font-family="'MyriadPro-Regular'" font-size="12">Login</text>
<text transform="matrix(1 0 0 1 18.9872 554.6664)" fill="#808080" font-family="'MyriadPro-Regular'" font-size="10">Home</text>
<rect x="847.4" y="15.5" fill="#FFFFFF" stroke="#000000" stroke-miterlimit="10" width="47.6" height="19"/>
<rect x="851.1" y="20.1" fill="none" width="46" height="16.3"/>
<text transform="matrix(1 0 0 1 851.0836 28.6513)" font-family="'MyriadPro-Regular'" font-size="12">Register</text>
<rect y="48.5" fill="#CCCCCC" width="960" height="493.2"/>
<line fill="none" stroke="#000000" stroke-miterlimit="10" x1="0" y1="541.7" x2="960" y2="48.5"/>
<line fill="none" stroke="#000000" stroke-miterlimit="10" x1="960" y1="541.7" x2="0" y2="48.5"/>
<rect x="324" y="191.6" fill="#E6E6E6" stroke="#000000" stroke-miterlimit="10" width="306" height="163"/>
<rect x="324" y="252.8" fill="none" width="306.9" height="27.2"/>
<text transform="matrix(1 0 0 1 349.8628 269.8313)" font-family="'MyriadPro-Regular'" font-size="24">WebApp Description / Ad</text>
</svg>
